<?xml version="1.0" encoding="UTF-8"?>
<svg id="Calque_1" xmlns="http://www.w3.org/2000/svg" version="1.1" viewBox="0 0 1920 2160">
  <!-- Generator: Adobe Illustrator 29.5.0, SVG Export Plug-In . SVG Version: 2.1.0 Build 137)  -->
  <defs>
    <style>
      .st0 {
        fill: none;
        stroke: #000;
        stroke-miterlimit: 10;
      }
    </style>
  </defs>
  <path class="st0" d="M14.5-3.5v71.46c0,9.16,0,19.1-.06,29.62,1.56,73.42-10.44,146.42-13.44,219.42-.75,13.25-.98,26.39-.78,39.45.1,11.82.62,23.55,1.49,35.22s2.1,23.28,3.61,34.85c30.67,154.48,29.67,312.48,10.51,468.49-.9,13.62-1.52,27.26-1.77,40.93-.25,13.68-.13,27.39.43,41.15v1192.91"/>
  <path class="st0" d="M35.28-3.5v71.46c1.72,63.04-5.28,124.04-10.28,187.04-1.6,25-1.64,49.64-.46,74.06.59,12.21,1.48,24.35,2.6,36.31,2.87,18.63,1.87,37.63,7.87,56.63,25,79,43,159,39.77,241.6-.46,13.06-1.25,26.12-2.35,39.17-5.48,65.27-18.5,130.37-34.27,194.04-1.25,13.27-2.17,26.58-2.68,39.96-.51,13.37-.6,26.8-.19,40.31v1192.91"/>
  <path class="st0" d="M56.06-3.5v71.46c1.61,59.2-7.84,117.68-9.88,176.62-.41,11.79-.52,23.59-.19,35.43-2,89,21,171,44,258,10,40,13,79,10.74,119.03-.79,14.28-2.06,28.59-3.73,42.92-6.69,57.3-19.81,114.66-35.01,171.06-3,11-2,23-3.79,33.81-.97,12.44-1.67,24.93-2.02,37.46-.1,11.38-.12,23.06-.12,34.82v1192.91"/>
  <path class="st0" d="M76.84-3.5v46.45c0,7.5,0,15.85,0,24.94,1.8,51.76-7.62,102.05-8.5,153.26-.18,10.24,0,20.52.66,30.85,3,50,3,100,12,151,15,92,41,179,35.15,271.4-.72,12.7-1.74,25.41-3.07,38.11-5.3,50.82-15.41,101.48-30.08,151.48-5,14-6,29-6,44,0,11,0,23-.16,33.86v1228.14"/>
  <path class="st0" d="M97.62-3.5v46.45c0,7.5,0,15.85,0,24.81.38,33.25.38,67.25-2.62,100.25-.5,12.5-2.25,25-3.38,37.5s-1.63,24.97.26,37.19c12.12,154.31,50.12,308.31,34.84,463.29-1.26,13.45-2.75,26.92-4.47,40.43-5.13,40.52-12.26,81.34-21.26,122.59-3,13-4,25-3.38,37.76v1263.24"/>
  <path class="st0" d="M118.41-3.5v46.45c0,7.5,0,15.85,0,24.9,2.16,48.46-5.12,95.42-.66,143.3.89,9.54,2.02,18.21,3.83,27.09,18.43,142.76,32.43,288.76,20.55,432.77-1.31,14.52-2.81,29.36-4.45,44.23-4.92,44.61-11.07,89.46-17.67,134.76-3,19-3,38-1.59,56.76v1263.24"/>
  <path class="st0" d="M139.19-3.5v68.62c.41,29.94-.64,60.16.34,90.14.33,9.99.88,19.96,1.78,29.89.7,7.85.7,15.85,3.7,23.85,50,167,23,338,9.86,506.04-1.67,13.9-3.48,27.84-5.46,41.83-1.97,13.99-4.1,28.03-6.4,42.13-4,27-5,53-3.88,79.35.05,12.02.07,25.16.07,38.51v237.22c0,11.79,0,23.57,0,35.33v145.75c-2.19,114.84-.19,229.84,0,344.8v490.03"/>
  <path class="st0" d="M159.97-3.5v90.43c-.48,36.53,2.02,72.3,7.15,107.81,1.71,11.8,3.71,22.21,6.03,32.87,60.85,146.39,24.85,302.39,6.23,452.11-1.29,10.5-2.61,21.1-3.95,31.72-4.04,31.87-8.3,63.93-12.43,96.56-4,27-4,53-3.06,79.18.02,12,.02,24.46.02,37v265.23c-.02,11.76-.03,23.51-.04,35.23-.09,12.44-.2,24.86-.31,37.27-.11,12.41-.22,24.81-.33,37.2-5.29,134.89-1.29,269.89.66,404.4,0,12.37,0,24.59.02,36.63v429.87"/>
  <path class="st0" d="M180.75-3.5v140.77c0,14.74,0,30.48,0,47.13.25,82.6,28.14,139.03,34.14,223.03,3,43-1.22,92.14-6.6,141.27-.9,8.19-1.83,16.38-2.76,24.54-12.53,70.76-11.53,143.76-17.18,215.77-.6,6.64-1.24,13.28-1.92,19.94-1.35,13.31-2.83,26.66-4.43,40.06-3,23,0,45-1.25,67.87,0,13.34,0,26.73,0,40.14v161.67c-.05,11.77-.06,23.56-.08,35.34-.28,26.33-.76,52.63-1.32,78.92-.28,13.14-.58,26.28-.88,39.42-2.47,117.64-13.47,233.64-.47,352.64,6,58,3,116,2.75,173.87v371.13"/>
  <path class="st0" d="M201.53-3.5v173.48c0,9.83-2.11,20.22,0,30.41,22.78,109.74,16.71,216.09,15.46,323.35-.1,8.94-.17,17.88-.19,26.84,2.19,51.42-5.81,102.42-9.81,153.42s-1,102-5.14,153.3c-.38,8.48-.62,16.97-.69,25.47-.07,8.51.04,17.03.35,25.57v104.07c1.24,67.79-.65,135.69-3.34,203.63-.54,13.59-1.11,27.18-1.69,40.77-.5,92.17-22.5,182.17-10.5,276.17,12,97,17,192,15.53,288.49v348.51"/>
  <path class="st0" d="M222.31-3.5v178.51c0,8.54,0,17.34,0,26.38,1.16,104.92,6.72,209.55,10.73,314.41.36,9.53.72,19.07,1.05,28.61-.1,18.59,2.9,38.59-2.1,57.59-25,94-9,186-9.67,279.26,0,5.56,0,11.13-.01,16.7s0,11.16,0,16.75v169.27c-.06,11.41-.08,22.95-.1,34.47.67,31.33-1.3,62.58-4.34,93.83-1.01,10.42-2.15,20.84-3.34,31.26-13.53,96.44-29.53,191.44-17.53,290.44,8,67,28,130,25.23,196.71.02,12.81.04,25.49.08,37.88v401.41"/>
  <path class="st0" d="M243.09-3.5v191.36c0,9.13,0,18.53.02,28.16,1.18,93.11,6.71,185.84,9.13,278.67.24,9.28.45,18.57.63,27.85,7.14,54.46-17.86,103.46-25.86,157.46-2,16-3,31-2,47,4,57,23,112,18.1,170.3,0,5.58,0,11.17,0,16.76v33.66c0,44.97,0,90.22-.04,135.34.95,37.94-.05,74.94-6.05,112.94-2.2,14.7-4.2,29.29-5.99,43.79-17.01,138.21-38.01,278.21,3.99,418.21,11,36,9,74,8.06,110.74,0,12.46.02,24.74.03,36.74v364.52"/>
  <path class="st0" d="M263.87-3.5v219.56c1.33,89.34,4.56,178.7,5.79,268.08.12,8.94.22,17.88.3,26.82,6.04,53.04-11.96,102.04-24.96,154.04-8,31-8,60-1,91,12,54,22,104,19.87,158.06v33.66c0,44.97,0,90.2-.03,135.29,1.15,37.99.15,75.99-4.85,114.99-1.9,13.9-3.67,27.73-5.29,41.51-19.71,138.49-41.71,278.49,1.29,417.49,11,36,9,74,8.86,111.77,0,12.46,0,24.72.02,36.71v364.52"/>
  <path class="st0" d="M284.65-3.5v249.33c.96,82.27,2.77,164.95,2.71,247.25,0,8.23-.03,16.45-.07,24.67,3.71,58.25-12.29,114.25-17.29,172.25-1,19-1,38,2,58,8,56,15,110,12.65,166.06v33.66c0,44.97,0,90.2,0,135.27-1.95,30.29-3.54,60.55-4.81,90.8-.63,15.13-6.11,33.32-7.66,48.37-16.25,157.77-52.35,202.32,8.81,477.83,6.59,29.69,4,59,3.66,87.54,0,11.94,0,23.68,0,35.18v347.28"/>
  <path class="st0" d="M305.43-3.5v302.49c0,10.17.04,20.49.07,31.02.35,54.59.45,109.19.45,163.88,0,7.81,0,15.63,0,23.45.05,20.66-2.95,42.66,3.05,63.66,26,87,23,174,0,262-5,23-3,46-3.57,69.48v87.32c0,10.94,0,21.89,0,32.78,3.8,52.02,4.43,104.44-4.72,156.35-1.83,10.38-4.05,20.74-6.72,31.08-41,141-40,293,14,433,7,18-1,39-2,59-2,21-1,42-1.37,62.98-.06,11.24-.11,22.67-.12,34.14-.05,45.89.29,91.73.92,137.51.01,17.11.01,33.5.01,49.02v174.35"/>
  <path class="st0" d="M326.22-3.5v338.17c-.22,43.33-.22,86.33,0,129.37,0,9.74,0,19.59,0,29.53v22.52c0,7.56,0,15.14.05,22.64.74,18.27-1.26,38.27,6.74,55.27,24,53,36,110,22,168-11,49-35,92-28.78,141.58v117.01c4.24,67.76-.42,133.8-7.93,200.16-1.5,13.27-3.11,26.53-4.77,39.63-7.52,46.63-17.52,93.63-9.52,142.63,22,139,40,272,23.71,409.33-.39,11.19-.76,22.38-1.08,33.58-.96,33.58-1.44,67.19-.44,100.88.02,16.96.02,33.34.02,48.86v174.35"/>
  <path class="st0" d="M347-3.5v539.71c0,13.79-2,28.79,2,42.79,27,86,33,173,1,258-4,12-3,25-2.93,38.01-.07,7.28-.07,14.68-.07,22.09v123.48c-.17,10.9-.08,21.76.11,32.59,4.6,49.22.35,97.62-5.66,146.65-1.5,12.26-3.11,24.55-4.73,36.91-3.72,30.27-9.72,60.27-6.72,90.27,16,157,36,311,18.94,466.7-.32,11.35-.63,22.7-.91,34.05-1.13,45.42-1.86,90.83-1.03,136.24v206.01"/>
  <path class="st0" d="M367.78-3.5v562.17c-2.78,49.33,16.22,97.33,17.22,146.33,2,47-14,91-16.81,137.04-.28,6.6-.41,13.42-.41,20.97v160.3c0,10.89,0,21.78,0,32.64-.78,37.05,4.22,73.05-.78,110.05-3.75,27-12,52.31-15.47,78.47-1.16,8.72-1.78,17.53-1.51,26.47-.02,24.06,1.98,47.06,4.98,71.06,9,83,14,165,17,248,1,23,5,46,7,69,3,33-10,66-9.08,99.1-.52,13.68-.89,27.44-1.17,41.2-1.13,55.03-.84,109.86-.97,164.69v206.01"/>
  <path class="st0" d="M388.56-3.5v581.06c.44,11.44-.56,23.44,1.44,34.44,10,71,7,139-1,210-1,13,0,26-.44,38.61v159.97c0,11.34,0,22.69-.01,34.01-.14,10.1.01,20.12.17,30.08.29,20.33,2.29,39.33-1.71,59.33-8.4,36.9-14.46,73.35-18.69,109.57-1.41,12.07-2.61,24.09-3.54,35.74-1.77,16.69-1.77,32.69.23,49.69,13,144,29,285,28.65,429.12-.17,11.61-.48,23.2-.85,34.79-1.88,57.94-5.58,115.71-4.25,174.01v193.08"/>
  <path class="st0" d="M409.34-3.5v596.62c0,6.77.01,13.55.1,20.25,4.56,70.63,4.56,141.63,0,213.03-.09,7.15-.1,14.45-.1,21.79v167.18c-.89,41.09,4.14,83.67.19,124.39-.99,10.18-2.52,20.23-4.86,30.11-11.68,28.13-22.68,57.13-23.68,87.13-.3,11.9-.65,23.82-1,35.69-1,27.31,0,54.31,4,81.31,10,84,9,165,17,248,3,32,11,64,13.77,96.23,1.04,12.58,1.56,25.25,1.7,37.98.7,63.66-7.97,128.86-7.12,192.3,0,9.71,0,19.19,0,28.4v193.08"/>
  <path class="st0" d="M430.12-3.5v1018.87c-.04,19.21.82,38.8,1.21,58.33.19,9.77.27,19.53.06,29.22-.2,14.54-1.29,28.81-3.59,42.82s-5.81,27.76-10.81,41.25c-4.99,16.01-9.99,32.01-13.62,48.13-3.62,16.13-5.87,32.38-5.37,48.88,6,132,5,265,30.98,394.91,1.86,10.73,3.26,21.63,4.27,32.63,7.04,77.01-6.29,157.71-3.13,236.94v221.53"/>
  <path class="st0" d="M450.9-3.5v1018.87c.18,10.61.28,21.17.27,31.7.83,29.94-.17,59.94-4.17,89.94-1.9,13.9-3.66,27.76-5.28,41.59-1.62,13.83-3.09,27.62-4.41,41.38-1.03,13.8-1.95,27.62-2.75,41.44-4.57,82.6-3.57,165.6-.64,248.88.76,13.78,1.69,27.56,2.77,41.34,2.16,27.54,4.92,55.03,8.33,82.45,1.49,13.1,2.67,26.19,3.6,39.27,6.53,91.69.62,182.85,2.28,275.14v221.53"/>
  <path class="st0" d="M471.68-3.5v1018.87c1.32,41.63-4.68,82.63-6.68,124.63-1,33,14,64,18,94,4.88,41.25,6.8,82.36,7.5,123.44.27,13.67.39,27.35.43,41.05-2.94,83.52,11.06,168.52-17.94,248.52-1.5,12.62-2.62,25.23-3.45,37.83-5.76,88.18,3.28,175.73,2.13,263.64v221.53"/>
  <path class="st0" d="M492.46-3.5v1018.87c1.54,6.63.54,12.63.54,19.63-1,42-20,85-3,124,21,45,35,90,36,139,1,63-5,126-2,189,2,32,2,63-2,95.04-1.5,13.97-7.25,25.71-13.75,37.09s-13.75,22.38-18.25,34.88c-3,10-2,21-2,31,0,78,5,156,4.45,233.71.01,10.04.02,20.02.02,29.76v221.53"/>
  <path class="st0" d="M513.24-3.5v771.89c0,7.51,0,15.03,0,22.58-.24,59.03-.24,119.03,0,178.27v17.35c4.76,60.41-19.24,121.41,1.76,178.41,17,48,48,93,41,146-12,86-7,169-12,254,0,14-6,28-12.25,41.12-6.5,14.62-13.75,28.88-17.75,43.88-21,89,4,179-.76,268.76,0,10.01,0,19.96,0,29.71v221.53"/>
  <path class="st0" d="M534.03-3.5v754.55c-1.03,94.95-1.03,188.95-.92,284.34-.52,7.48-1.14,14.96-1.73,22.43-2.99,37.37-5.49,74.55,7.63,110.18,19,48,40,97,34,150-10,82-6,162-14,244-1,16-6,31-13.12,45.75-3.31,8.12-6.66,16.19-9.36,24.34s-4.77,16.41-5.52,24.91c-10,93,6,186,3.03,278.96v234.04"/>
  <path class="st0" d="M554.81-3.5v393.9c0,8.98,0,18.07-.05,27.19-4.36,102.13-4.72,204.75-1.12,306.79.33,9.28.69,18.55,1.07,27.8-3.7,102.83-5.7,204.83.21,307.59.03,8.1.12,16.2.31,24.31.77,32.43,3.27,64.93,10.77,97.93,17,72,33,140,26,213-5,56-17,109-18,165,0,13-3,26-6.12,39.25-2.06,8.25-4.53,16.44-7.36,24.56s-6.02,16.19-9.52,24.19c-2,5-3,11-3,17,3,91,9,182,6.81,272.88v232.12"/>
  <path class="st0" d="M575.59-3.5v367.28c0,8.76,0,17.63-.06,26.49-7.49,103.51-7.86,206.56-4.01,309.96.35,9.4.73,18.8,1.15,28.21.34,13.57,2.34,27.57,1.34,41.57-4,108-6,215,4.15,321.98.73,8.77,1.59,17.55,2.55,26.33,4.8,43.94,12.3,88.19,21.3,133.69,20,109,0,215-12.77,322.16-1.48,12.65-3.14,25.43-5,38.25-1.86,12.82-3.93,25.68-6.23,38.58-16,90,1,179-2.41,269.17,0,8.97,0,17.77,0,26.37v223.46"/>
  <path class="st0" d="M596.37-3.5v365.31c-5.46,115.88-12.85,230.15-6.03,346.7.57,9.71,1.23,19.44,2.01,29.16,2.66,12.32,2.66,25.32,2.66,37.32-3,109-3,218,3.26,327.25.78,7.63,1.78,15.25,3.05,22.88,1.27,7.63,2.82,15.25,4.69,22.88,33,139,33,274,10.43,411.25-1.65,14.41-3.5,28.97-5.57,43.6-2.07,14.64-4.36,29.35-6.86,44.15-16,92-5,182-7.63,273.15v249.85"/>
  <path class="st0" d="M617.15-3.5v342.27c.85,27.23.85,53.23-3.15,80.23-13.71,100.29-14.2,196.9-4.62,296.13.8,8.27,1.67,16.55,2.61,24.82,14.01,118.04-.99,237.04,7.86,355.07.44,7.83.92,15.66,1.41,23.49,2.98,46.99,6.73,93.99,8.73,141.49,3,74-6,146-11,220-1,28-2,56-1.84,84.1-.01,10.67-.01,21.31-.01,31.87v574.03"/>
  <path class="st0" d="M637.93-3.5v342.27c1.07,28.23.07,55.23-4.93,84.23-17.5,95-22.5,183.06-9.79,275.74,1.27,9.27,2.72,18.58,4.35,27.96,24.44,110.3,12.44,223.3,10.89,334.43.31,8.75.74,17.59,1.3,26.79,3.38,55.2,9.26,110.28,12.26,166.08,3,78-8,155-13,233-1,26-2,51-1.07,77.06v605.94"/>
  <path class="st0" d="M658.71-3.5v342.27c.29,25.23,1.29,50.23-4.71,75.23-25.71,107.14-28.65,209.14-10.08,315.45,1.55,8.86,3.25,17.75,5.1,26.65,21.98,88.9,16.98,180.9,9.98,271.9-1,19,1,38,1.36,57.02.45,9,.95,17.99,1.48,26.99,2.66,44.99,6.16,89.99,8.16,134.99,4,74-4,148-10,222-1,21-2,42-1.28,62.68,0,10.86,0,21.66,0,32.38v605.94"/>
  <path class="st0" d="M679.49-3.5v314.71c0,9.04,0,18.22-.01,27.4-.48,23.38,1.52,47.38-4.48,70.38-29.14,113.14-31.1,221.88-11.55,334.39,1.63,9.38,3.41,18.78,5.33,28.21,25.21,91.4,10.21,186.4,10.85,279.54.2,8.21.44,16.42.73,24.63,2.3,65.68,6.97,131.23,7.63,197.23,2,86-9,173-8.51,258.67v638.33"/>
  <path class="st0" d="M700.27-3.5v313.42c0,8.6,0,17.32-.01,26.07-.26,16.01,1.74,32.01-1.26,48.01-15,102-37,198-23,301,4.8,34.8,10.56,68.96,15.38,102.98,1.2,8.51,2.35,17,3.41,25.49,9.21,61.52,8.21,123.52,5.62,185.33-.06,7.18-.13,14.35-.14,21.57v1149.62"/>
  <path class="st0" d="M721.05-3.5v313.42c0,8.6,0,17.29-.02,25.87-.04,23.21,1.96,46.21-2.04,69.21-19,142-29,277-3,421,8,39,5,77,5.05,115.86v1228.14"/>
  <path class="st0" d="M741.84-3.5v313.41c2.16,104.09-.84,207.09-8.84,311.09-5,59-2,116,3,175,4,49,5,97,5.81,146,.02,11.61.02,23.33.02,35.09v1192.91"/>
  <path class="st0" d="M762.62-3.5v313.42c0,8.6,0,17.31.01,25.92.37,21.16-1.63,42.16,2.37,64.16,22,132,6,258-4,387-4,64,3,127,1.62,190.09v1192.91"/>
  <path class="st0" d="M783.4-3.5v313.42c0,8.6,0,17.29-.02,25.97-1.38,16.11-1.38,33.11,1.62,49.11,35,144,34,278,2,425-12,56-3,111-3.6,167.09v1192.91"/>
  <path class="st0" d="M804.18-3.5v313.42c-.18,29.08-3.18,57.08,2.82,86.08,25,105,54,206,26,313-21,78-34,154-28.79,233.16-.03,11.46-.04,23.17-.04,34.93v1192.91"/>
  <path class="st0" d="M824.96-3.5v313.42c0,8.6,0,17.29.02,25.94-3.98,60.13,14.02,115.13,27.02,175.13,24,99,6,192-19,288-12,48-7,95-8.04,142.86v1228.14"/>
  <path class="st0" d="M1344.48-3.5v671.15c0,11.01,0,22.08,0,33.22,1.51,9.14-1.49,18.14,1.51,26.14,3.62,10.38,7.09,20.6,10.36,30.9,22.64,70.1,35.64,144.1,29.64,218.1-1.33,14.33-3.22,28.56-5.44,42.7-2.2,14.12-4.37,27.74-6.71,41.45-1.66,9.6-3.2,19.22-4.64,28.85-1.43,9.63-2.76,19.27-3.99,28.93-5.22,39.06-8.22,77.06-10.77,116.48-.61,9.73-1.16,19.48-1.66,29.22-5.38,107.29-4.3,215.27-8.27,322-.02,18.44-.02,36.65-.03,54.58v529.78"/>
  <path class="st0" d="M1365.27-3.5v704.37c-.27,10.13-2.26,21.12.76,31.06,17.48,72.56,30.11,146.46,28.63,221.16-.3,14.94-1.16,29.91-2.66,44.91-2.67,18.56-4.99,37.14-7.02,55.74-2.03,18.6-3.76,37.22-5.26,55.86-1.49,18.64-2.74,37.3-3.8,55.97-1.06,18.67-1.94,37.36-2.68,56.05-3.69,93.48-3.97,187.23-7.37,280.79-.31,19.29-.58,38.32-.61,57.45v610.13"/>
  <path class="st0" d="M1386.05-3.5v704.37c-.02,11.57-.78,22.85-.92,34.12-.13,6.02-1.13,13.02-.13,19.02,24.17,102.5,22.64,201.53,11.62,302.87-2.18,20.25-4.2,40.12-6.63,60.36-2.99,17.77-2.99,35.77-1.99,53.77,7,122-4,244-1.94,365.72,0,16.19,0,32.22,0,48.06v585.22"/>
  <path class="st0" d="M1406.83-3.5v704.37c-.64,10.02-.92,20.01-.94,29.98s.22,19.9.62,29.82c10.93,85.83,10.35,171.93,6.88,257.93-.69,17.2-1.5,34.4-2.36,51.59-2.02,27.82-3.02,55.82-3.02,83.82,0,116-1,233-1.17,349.39,0,16.91,0,33.67,0,50.24v616.36"/>
  <path class="st0" d="M1427.61-3.5v704.37c.2,14.59.37,29.18.51,43.76.14,14.58.26,29.15.35,43.72,2.95,96.38,1.35,193.69.11,290.81-.25,19.42-.48,38.84-.66,58.24.08,107.6.08,215.6-.31,323.45v709.14"/>
  <path class="st0" d="M1448.39-3.5v671.15c0,11.01,0,22.08,0,33.22.92,29.23,2.18,58.41,3.48,87.58.65,14.58,1.31,29.17,1.95,43.75.4,10.98.81,21.95,1.21,32.94,2.97,83.87,1.97,166.87-3.03,250.87-2,36-4,73-3.61,108.67,0,11.71,0,23.4,0,35.07v910.26"/>
  <path class="st0" d="M1469.17-3.5v704.37c0,11.14,0,22.33.08,33.23,1.38,14.19,2.68,28.36,3.9,42.52,1.22,14.16,2.35,28.31,3.38,42.45,9.46,134.93-3.54,270.93-7.37,405.61,0,11.7,0,23.39,0,35.06v910.26"/>
  <path class="st0" d="M1489.95-3.5v737.96c-.48,9.27-.46,18.66.04,28.1s1.51,18.94,3.01,28.44c5,29,7,59,7,88,2,128-11,255-10.05,382.49v908.51"/>
  <path class="st0" d="M1510.73-3.5v737.96c6.27,130.54,9.27,261.54-.73,393.54-4,45,0,89,.72,133.54.01,12.21.01,24.43.01,36.61v871.85"/>
  <path class="st0" d="M1531.51-3.5v737.96c0,11.25-.01,22.52-.03,33.82,5.52,130.72-1.48,260.72-1.48,391.72,0,44,0,88,1.51,132.29v877.71"/>
  <path class="st0" d="M1552.29-3.5v702.51c0,11.41-.01,22.9-.02,34.43.73,185.56-2.27,372.56.02,558.85v877.71"/>
  <path class="st0" d="M1573.08-3.5v693.25c-1.08,198.25-1.08,396.25,0,594.04,0,10.89,0,21.76,0,32.61v853.6"/>
  <path class="st0" d="M1593.86-3.5v737.96c2.14,186.54,2.14,373.54,0,560.21v875.33"/>
  <path class="st0" d="M1614.64-3.5v737.96c2.36,174.54,7.36,350.54.06,525.57-.05,11.42-.06,23.03-.06,34.64v875.33"/>
  <path class="st0" d="M1635.42-3.5v737.96c2.58,174.54,9.58,350.54,0,525.28v17.49c0,5.82-.17,11.56-.29,17.34-.13,23.43-.13,46.43-.06,69.43.16,7.61.35,15.14.35,22.74v783.26"/>
  <path class="st0" d="M1656.2-3.5v737.96c.76,154.46,8.83,308.43,1.55,463.09-.43,9.1-.91,18.2-1.45,27.3-7.3,70.15-8.3,141.15-.1,211.41v733.74"/>
  <path class="st0" d="M1676.98-3.5v737.96c0,11.25,0,22.55.03,33.88,2.62,132.7,4.48,266.43,1.54,399.38-.21,9.5-.44,18.99-.7,28.48-10.84,80.81-21.84,161.81-2.15,242.64.65,6.04,1.28,11.82,1.29,18.96v712.21"/>
  <path class="st0" d="M1697.76-3.5v737.96c.22,142.07,2.87,283.67.54,426.39-.16,9.52-.33,19.04-.54,28.56-3.76,58.59-20.76,116.59-13.76,176.59,5,44,16,85,13.76,128.72v675.28"/>
  <path class="st0" d="M1718.54-3.5v806.11c.02,11.44.03,22.94.04,34.47.42,105.92.42,210.92-.04,317v17.68c0,5.89,0,11.73-.06,16.74-8.48,101.51-6.48,203.51.06,305.5v676.01"/>
  <path class="st0" d="M1739.32-3.5v875.33c-.32,59.17-.32,117.17,0,175.99,0,11.81,0,23.62,0,35.43v90.47c7.68,103.28,10.68,205.28,0,308.6v687.68"/>
  <path class="st0" d="M1760.1-3.5v1177.78c-.1,14.72-1.1,30.72,2.9,45.72,26,94,2,183-17.43,273.3-.88,8.27-1.73,16.54-2.5,24.83-.77,8.28-1.47,16.57-2.07,24.87-4,67,6,132,16,199,4,30,4,59,3.1,88.39v339.61"/>
  <path class="st0" d="M1780.89-3.5v1177.78c-2.89,49.72,10.11,97.72,13.11,147.72,3,48-14,92-27.29,137.19-1.69,7.9-2.88,16.79-3.89,25.72-11.1,98.4-4.25,191.73,16.18,293.09,3,18,3,35,1.89,52.39v339.61"/>
  <path class="st0" d="M1801.67-3.5v1199.21c0,7.13,0,14.26.01,21.38.32,68.91,18.32,139.91-9.18,205.79-2.55,8.9-5.16,17.03-6.77,26.52-19.29,113.98-18.44,223.45,13.28,336.59,4,14,3,29,2.67,44.43,0,8.82,0,17.55,0,26.15v313.42"/>
  <path class="st0" d="M1822.45-3.5v1263.24c0,5.84.01,11.66.02,17.48.54,34.78,2.54,70.78-3.05,105.8-.89,7.29-1.88,14.6-2.99,21.91-3.29,21.97-7.79,43.95-13.42,66.08-28,109-17,215,15,321,4,13,5,26,4.35,38.88.08,8.43.1,17.1.1,25.7v313.42"/>
  <path class="st0" d="M1843.23-3.5v1298.17c-.23,34.33,3.77,67.33-3.23,101.33-32,139-45,272-2,407,6,18,6,36,5.23,53.58v313.42"/>
  <path class="st0" d="M1864.01-3.5v1298.17c0,47.33,2.99,93.33-3.01,140.33-17,128-27,249-1,380,3,14,5,28,3.97,41.77.04,17.01.04,33.66.04,49.74v263.49"/>
  <path class="st0" d="M1884.79-3.5v1298.17c.21,32.33-2.79,63.33,3.21,95.33,24,133,9,258-4,388-3,27,0,53,.59,80.15.18,15.75.2,32.28.2,48.36v263.49"/>
  <path class="st0" d="M1905.57-3.5v1298.17c1.43,38.33-4.57,78.33,9.43,113.33,54,132,32,270-6,404-8,30-3,63-3.43,94.51v263.49"/>
  <path class="st0" d="M845.74,1440.1v734.43"/>
  <path class="st0" d="M856.59,2170.91c-1.59-35.91.41-71.91,3.41-107.91,3-48,6-95,6.52-143.23v-479.67"/>
  <path class="st0" d="M887.3,1440.1v410.73c-.3,26.17.7,51.17-1.3,77.17-9,82-24,162-20.39,244.09"/>
  <path class="st0" d="M908.08,1440.1v390.29c-.08,16.61.92,33.61-1.08,50.61-14,99-40,194-33.71,292.6"/>
  <path class="st0" d="M928.86,1440.1v345.62c0,15.22-.03,30.06-.24,44.23-.63,14.06-.63,28.06-4.63,42.06-23,103-50,200-43.44,303.5"/>
  <path class="st0" d="M949.65,1440.1v299.01c0,15.84,0,31.38,0,46.6-.64,18.3,1.36,36.3-3.64,54.3-30,113-66,222-57.97,337.89"/>
  <path class="st0" d="M970.42,1440.1c0,15.79,0,31.47,0,47.02v268.41c-.43,19.48,2.57,38.48-2.43,56.48-34,124-83,241-71.66,369"/>
  <path class="st0" d="M990.8,1440.43c.17,16.81.37,33.42.39,50.06s.02,33.13.02,49.47v186.69c0,15.3-.01,30.28-.16,44.46.95,20.9-3.05,41.9-11.05,61.9-48,112-82,230-73.67,352.2"/>
  <path class="st0" d="M1010.77,1441.23c.23,31.77,2.23,63.77,1.21,95.49.01,15.8.01,31.45.01,46.93v134.19c0,14.71-.02,29.09-.15,42.62.16,24.54-3.84,48.54-14.84,71.54-54,113-87,234-77.52,359.13"/>
  <path class="st0" d="M1030.61,1442.36c.39,42.64,2.39,84.64,2.15,127.93.02,14.06.02,28.01.02,41.81v124.09c1.23,30.81-.77,62.81-14.77,91.81-57,116-91,243-79.16,372.01"/>
  <path class="st0" d="M1050.53,1443.73c1.47,56.27,2.47,113.27,3.02,169.73v81.47c0,14.56,0,28.91,0,43.01-.55,32.06-.55,64.06-13.55,94.06-53,121-82,251-68.39,381.67"/>
  <path class="st0" d="M1070.69,1445.23c1.31,58.77,4.31,118.77,3.64,177.89,0,19.5,0,38.7,0,57.55v49.31c-.33,28.02,1.67,56.02-4.33,85.02-26,142-46,276-35.97,416.17"/>
  <path class="st0" d="M1091.2,1446.76c1.8,59.24,3.8,117.24,3.88,176.1.03,19.38.03,38.54.03,57.35v49.35c-1.11,37.44-.11,73.44,5.89,110.44,23,133,34,261,26.69,392.86"/>
  <path class="st0" d="M1112.12,1448.21c1.88,76.79,3.88,154.79,3.77,232v49.35c-.89,32.44-.89,64.44,11.11,94.44,52,125,81,257,68.03,391.71"/>
  <path class="st0" d="M1133.47,1449.47c2.53,68.53,2.53,136.53,3.2,205.04,0,13.51,0,26.91,0,40.14v45.41c-1.67,30.95,2.33,61.95,16.33,90.95,57,116,89,242,77.3,370.34"/>
  <path class="st0" d="M1155.19,1450.43c1.81,79.57,1.81,159.57,2.27,239.79,0,17.45,0,34.59,0,51.39,1.54,20.4-2.46,42.4,5.54,61.4,52,124,101,252,87.77,388.98"/>
  <path class="st0" d="M1177.18,1451.01c.82,79.99.82,158.99,1.06,239.21,0,17.45,0,34.6,0,51.4-.24,30.39-1.24,60.39,10.76,88.39,49,113,85,232,75.45,355.76"/>
  <path class="st0" d="M1199.3,1451.14c-.3,68.86-.3,137.86-.28,207.01,0,14.73,0,29.31,0,43.69v42.47c0,16.7.04,32.96.36,48.06.63,10.64.63,21.64,4.63,31.64,40,116,80,233,70.73,357.4"/>
  <path class="st0" d="M1221.58,1450.81c-2.58,78.19-1.58,155.19-1.78,233.15v82.26c0,15.92.06,31.38.44,45.73,1.76,7.05-.24,14.05,1.76,21.05,31,116,71,226,61.18,345.18"/>
  <path class="st0" d="M1243.11,1450.08c-1.11,76.92-3.11,153.92-2.53,230.59v129.83c.42,14.5-.58,27.5,2.42,41.5,22,111,54,213,47.71,323.72"/>
  <path class="st0" d="M1264.9,1448.97c-1.9,72.03-3.9,143.03-3.54,214.57,0,17.23,0,34.19,0,50.85v96.11c0,15.34,0,30.31.06,44.82.58,20.68,2.58,40.68,7.58,61.68,18,88,32,170,28.95,256.79"/>
  <path class="st0" d="M1285.88,1447.63c-1.88,72.37-3.88,144.37-3.74,215.89v191.9c-1.14,23.58-.14,46.58,2.86,70.58,10,83,23,163,20.52,246.24"/>
  <path class="st0" d="M1307.74,1446.05c-2.74,40.95-3.74,80.95-4.14,121.79-.37,20.31-.67,40.31-.67,60.84v269.35c-.92,68.96,7.08,135.96,11.08,204.96,1,23,0,45,.28,68.03"/>
  <path class="st0" d="M1327.52,1444.56c-3.52,68.44-3.52,137.44-3.81,205.13v327.4c-.7,63.91,3.3,128.91,2.33,193.12"/>
  <g>
    <path class="st0" d="M845.74,336.52c-.42,17.38-.91,34.47,0,51.61"/>
    <path class="st0" d="M866.52,502.63c-4.02-24.69-9.2-49.54-15.52-74.63-2.76-12.21-4.26-24.27-5.04-36.29"/>
    <path class="st0" d="M845.74,388.13c.06,1.19.14,2.39.22,3.58"/>
    <path class="st0" d="M845.74,336.52c0-.16,0-.31.01-.47-.01-8.8-.01-17.53-.01-26.13"/>
    <path class="st0" d="M845.74,152.28V-3.5"/>
    <path class="st0" d="M866.52,502.63c15.68,96.36,13.36,190.46-10.52,288.37-13,51-10,101-10.26,150.86v498.24"/>
    <path class="st0" d="M866.52,377.89c-.37-14.02-.25-27.91,0-41.78"/>
    <path class="st0" d="M867.07,391.71c-.24-4.62-.42-9.23-.54-13.82"/>
    <path class="st0" d="M887.3,552.81c-5.01-42.7-12.63-85.21-17.3-128.81-1.45-10.88-2.37-21.63-2.93-32.29"/>
    <path class="st0" d="M887.3,552.81c4.64,39.58,7.03,79.31,2.7,120.19-9,79-25,155-23.4,233.99-.07,11.46-.08,23.15-.08,34.87v498.24"/>
    <path class="st0" d="M866.52,59.8V-3.5"/>
    <path class="st0" d="M887.3-2.74v-.76"/>
    <path class="st0" d="M887.44,391.71c.46,21.49,1.79,43.15,4.56,65.29,9,81,19,159,10,241-8,70-15,139-14.7,208.76v533.34"/>
    <path class="st0" d="M887.3,363.07c-.06,6.43-.07,12.87,0,19.31"/>
    <path class="st0" d="M887.3-2.74v40.4"/>
    <path class="st0" d="M887.44,391.71c-.07-3.11-.11-6.22-.14-9.33"/>
    <path class="st0" d="M908.08,331.3v-3.91"/>
    <path class="st0" d="M908.08,295.61v31.78"/>
    <path class="st0" d="M928.86,671v769.1"/>
    <path class="st0" d="M949.65,391.71v30.88"/>
    <path class="st0" d="M949.65,1440.1v-62.68c.35-64.41.35-129.41,0-192.95v-513.46"/>
    <path class="st0" d="M970.43,401.6v-3.86"/>
    <path class="st0" d="M970.43,406.17v-4.57"/>
    <path class="st0" d="M970.42,1440.1c-.42-119.1-.42-238.1,0-356.84-.24-17.54-.43-35.08-.59-52.61-.79-87.64-.59-175.09.6-262.27v-97.39"/>
    <path class="st0" d="M970.43,363.35v34.39"/>
    <path class="st0" d="M991.21,401.16v33.88"/>
    <path class="st0" d="M991.21,671v63.46c-2.08,51.02-3.01,102.27-3.17,153.57-.04,12.83-.03,25.66.02,38.49-.01,16.12.17,32.21.44,48.27s.65,32.1,1.04,48.11c1.47,139.1-2.53,278.1,1.27,417.53"/>
    <path class="st0" d="M1010.77,1441.23c-3.77-134.23.23-268.23-3.35-401.92-1.16-18.59-1.52-37.18-1.62-55.84s.12-37.34.04-56.22c.14-12.5.42-25.02.89-37.56.1-12.56.21-25.15.38-37.74.66-50.36,2.22-100.72,4.88-151.1,0-11.13,0-22.21,0-33.22"/>
    <path class="st0" d="M1011.99,443.85v-43.12"/>
    <path class="st0" d="M1032.77,634.83c0,10.87,0,21.8,0,32.81-1.69,40.59-3.21,81.16-4.37,121.71-.39,13.52-.73,27.03-1.03,40.55-2.12,30.7-3.42,61.39-3.99,92.07-.28,15.34-.38,30.68-.31,46.01,4.94,158.01,2.94,316.01,7.54,474.37"/>
    <path class="st0" d="M1032.77,400.3v25.2"/>
    <path class="st0" d="M1032.77,397.68v2.62"/>
    <path class="st0" d="M1053.55,667.65c-2.11,29.87-4.12,59.69-5.84,89.48-.86,14.9-1.66,29.79-2.36,44.69-2.89,20.53-5.02,41.03-6.5,61.5-1.48,20.48-2.3,40.93-2.58,61.37-.26,81.31,6.74,161.31,10.74,242.31,4,92,0,185,3.53,276.73"/>
    <path class="st0" d="M1053.55,466.76v-66.89"/>
    <path class="st0" d="M1074.33,392.25v7.18"/>
    <path class="st0" d="M1074.33,414.68v-15.25"/>
    <path class="st0" d="M1074.33,634.83c0,10.87,0,21.79-.02,32.66-1.72,24.92-3.45,49.82-5.06,74.73-.8,12.45-1.58,24.9-2.4,37.13-5.61,39.55-10.02,78.7-12.52,117.87-1.25,19.59-2.02,39.17-2.23,58.8-1.09,62.98,5.91,125.98,11.91,188.98,10,101,2,200,6.69,300.23"/>
    <path class="st0" d="M1074.33,431.71v-17.03"/>
    <path class="st0" d="M1095.11,432.13v-33.13"/>
    <path class="st0" d="M1095.11,634.83c-1.87,26.45-3.46,52.88-4.76,79.3-.65,13.21-1.24,26.41-1.75,39.61-5.65,36.82-9.76,73.74-12.35,110.72-1.29,18.49-2.2,36.98-2.74,55.48-2.51,91.07,3.49,181.07,12.49,272.07,7,85,3,170,5.2,254.76"/>
    <path class="st0" d="M1095.11,399v-15.52"/>
    <path class="st0" d="M1115.89,398.57v33.56"/>
    <path class="st0" d="M1115.89,632.79c2.11,26.21,3.11,51.21-1.89,77.21-2.4,13.4-4.63,26.65-6.77,39.36-9.06,33.91-15.6,68.09-19.71,102.44-2.06,17.17-3.5,34.38-4.36,51.6-4.16,87.61,12.84,172.61,23.84,260.61,11,94,2,189,5.12,284.21"/>
    <path class="st0" d="M1115.89,398.57v-3.57"/>
    <path class="st0" d="M1136.67,644.11c-.09-3.07-.11-6.16,0-9.28"/>
    <path class="st0" d="M1136.67,398.14v23.51"/>
    <path class="st0" d="M1136.67,398.14v-2.01"/>
    <path class="st0" d="M1136.67,644.11c.45,15.78,2.84,30.98.33,46.89-2.5,13.9-5.02,27.79-7.48,41.67-2.66,11.82-5.42,21.63-7.98,32.1-5.19,16.78-9.47,33.65-12.9,50.58s-6.01,33.94-7.82,50.99c-11.82,101.66,16.18,201.66,28.18,303.66,11,92,3,186,4.47,279.47"/>
    <path class="st0" d="M1157.46,634.83c.77,16.59,2.16,33.63,1.85,50.4s-2.31,33.27-8.31,48.68c-18.5,35.02-29.87,71.1-35.94,107.83-3.03,18.37-4.74,36.89-5.34,55.51-3.72,95.75,29.28,186.75,39.28,281.75,10,91,6,181,6.19,271.43"/>
    <path class="st0" d="M1157.46,397.7v73.77"/>
    <path class="st0" d="M1178.24,397.27v22.38"/>
    <path class="st0" d="M1178.24,419.65v51.83"/>
    <path class="st0" d="M1178.24,634.83c0,10.87,0,21.8.01,32.64.75,14.53,5.75,30.53-1.25,44.53-20.75,35.5-34.75,72.75-43.25,110.98-4.25,19.12-7.13,38.48-8.79,57.97-9.96,100.04,25.04,193.04,41.04,292.04,16,93,11,185,11.18,278.01"/>
    <path class="st0" d="M1178.24,397.27v-6.49"/>
    <path class="st0" d="M1199.02,667.88c0-.17-.02-.34-.02-.5.02-10.76.02-21.68.02-32.55"/>
    <path class="st0" d="M1199.02,417.39v-20.55"/>
    <path class="st0" d="M1199.02,667.88c.18,8.47,4.91,17.25.98,24.12-6.7,12.5-12.91,25.37-18.6,38.54-3.83,8.76-7.31,15.89-10.62,23.57-7.72,16.49-14.18,33.3-19.46,50.36s-9.37,34.36-12.35,51.82c-13.4,65.16-3.33,127.7,12.35,190.14,2.24,8.92,4.59,17.84,7.01,26.76,4.67,9.8,5.67,20.8,7.67,30.8,10,64,24,123,33.54,185.12.36,8.89.54,17.9.62,26.9.41,45.02-1.51,90.05-.87,135.12"/>
    <path class="st0" d="M1219.8,391.71v3.76"/>
    <path class="st0" d="M1219.8,667.3c.27,13.86,6.16,29.75-2.8,40.7-8.8,11-16.84,22.59-24.08,34.42-11.62,16.45-21.12,33.53-28.74,51.09s-13.33,35.61-17.38,53.98c-15.32,66.01-8.17,131.85,10.47,195.56,2.33,7.96,4.84,15.9,7.51,23.79,22.21,79.16,44.21,158.16,52.9,239.11.22,7.93.42,15.98.63,24.02,1.07,40.23,2.47,80.43,3.26,120.84"/>
    <path class="st0" d="M1219.8,634.83c0,10.86,0,21.75,0,32.27,0,.07,0,.14,0,.21"/>
    <path class="st0" d="M1240.58,634.83c0,3.18,0,6.36,0,9.54"/>
    <path class="st0" d="M1240.58,644.36c0,7.68,0,15.35.03,22.87-.02.71-.02,1.44-.03,2.16"/>
    <path class="st0" d="M1240.58,669.39c-.06,8.74,1.06,17.89.91,26.73.51,8.88-1.49,17.87-7.5,25.84-28.87,36.47-48.73,78.38-60.21,122.68-3.83,14.77-6.73,29.79-8.74,44.69-7.52,48.33-4.03,96,8.34,142.2,2.06,7.7,4.36,15.35,6.8,22.83,12.82,44.63,29.82,87.63,42.82,133.63,6,25,8,50,13,76,3,18,6,36,5.14,53.51.13,8.85.26,17.7.4,26.56.54,35.4,1.13,70.78,1.58,106.01"/>
    <path class="st0" d="M1261.36,670.62c.25,11.47,3.4,23.27.64,33.38-2.92,13.25-5.67,26.55-8.24,39.89-3.85,18.26-7.27,36.65-10.25,55.13s-5.51,37.04-7.56,55.67c-4.65,37.44-6.08,74.62-5.04,111.81.26,9.3.68,18.6,1.24,27.9,2.85,85.6,18.85,166.6,36.85,254.6,5,25,2,48,.36,71.88-.33,8.52-.74,17.04-1.18,25.56-1.77,34.08-4.04,68.15-3.27,102.54"/>
    <path class="st0" d="M1261.36,667.61c-.03,1-.02,2,0,3.01"/>
    <path class="st0" d="M1285.88,1447.63c1.25-33.45,1.35-66.96,1.42-100.51.02-8.39.03-16.78.06-25.17-.36-8.95-.36-18.95,1.64-27.95,22-88,28-173,33.21-261.38,1.13-7.93,2.03-15.92,2.64-23.96,1.74-20.28,2.56-40.32,2.97-61.54,1.68-84.86-11.82-169.61-44.82-249.11-3.99-9.99-2.01-19.97-.86-30.35"/>
    <path class="st0" d="M1282.14,268.77v37.5"/>
    <path class="st0" d="M1282.14,667.65s0-.03,0-.04c0-10.99,0-21.93,0-32.78"/>
    <path class="st0" d="M1302.92,668.37c-.02,8.95-.94,18.03-.93,26.71,0,3.92-.99,8.92,1.01,11.92,33.75,55.5,51.47,115.08,57.59,176.12,2.04,20.35,2.79,40.85,2.42,61.43-.31,25.04-2.41,49.58-5.72,73.89-1.1,8.1-2.34,16.18-3.69,24.24-2.61,16.32-7.61,32.32-8.61,48.32-5,69-23,134-35.42,200.96-.41,8.3-.56,16.84-.61,25.42-.28,42.88,1.4,85.64-1.23,128.67"/>
    <path class="st0" d="M1302.92,668.37c0-.25,0-.5,0-.75,0-11,0-21.93,0-32.8"/>
    <path class="st0" d="M1302.92,242.98v20.67"/>
    <path class="st0" d="M1323.7,667.65c.15,11.68-.78,23.52-.49,34.93-1.21,4.42-.21,9.42,1.79,12.42,31.5,57.38,46.12,117.84,50.01,179.4,1.3,20.52,1.4,41.16.54,61.85-2.27,41.87-8.16,82.81-14.98,123.78-1.35,8.18-2.74,16.37-4.14,24.57-8.43,65.4-20.43,130.4-25,196.16-.34,8.03-.62,16.05-.86,24.06-1.19,40.07-1.31,79.96-3.05,119.74"/>
    <path class="st0" d="M1323.7,184.6v-31.59"/>
    <path class="st0" d="M845.74,391.71v-3.58"/>
    <path class="st0" d="M845.74,336.52v-26.6"/>
    <path class="st0" d="M845.74,388.13v-51.61"/>
    <path class="st0" d="M845.74,309.92v-157.64"/>
    <path class="st0" d="M856.59-9.22c-1.59,35.91.41,71.91,3.41,107.91,3,48,6,95,6.52,143.23"/>
    <path class="st0" d="M866.52,377.89v-41.78"/>
    <path class="st0" d="M866.52,377.89v13.82"/>
    <path class="st0" d="M866.52,336.11v-94.19"/>
    <path class="st0" d="M887.3,382.38v-19.31"/>
    <path class="st0" d="M866.52,59.8c3.59,57.93,13.06,115.4,19.48,173.88,2,26,1,51,1.3,77.17"/>
    <path class="st0" d="M887.3,391.71v-9.33"/>
    <path class="st0" d="M887.3,310.86v52.2"/>
    <path class="st0" d="M908.08,327.39c0,1.3,0,2.61,0,3.91"/>
    <path class="st0" d="M887.3,163.47c6.6,38.76,14.1,77.67,19.7,117.22.59,4.98.91,9.96,1.08,14.93"/>
    <path class="st0" d="M908.08,327.39c.04-10.48.37-21.11,0-31.78"/>
    <path class="st0" d="M873.29-11.91c-3.78,59.21,4.09,117.12,14.01,175.38"/>
    <path class="st0" d="M908.08,391.71c0,84.86,6.21,171.8,6.21,271.74,0,244-6.21,528.1-6.21,776.65"/>
    <path class="st0" d="M908.08,391.71v-60.41"/>
    <path class="st0" d="M887.3,114.21c5.28,35.23,12.74,70.31,20.78,105.78"/>
    <path class="st0" d="M908.08,219.99c5.22,23.02,10.67,46.2,15.92,69.7,4,14,4,28,4.63,42.06.2,14.17.23,29.01.24,44.23"/>
    <path class="st0" d="M880.56-13.81c-2.76,43.51.43,85.87,6.74,128.01"/>
    <path class="st0" d="M928.86,391.71v-15.73"/>
    <path class="st0" d="M928.86,391.71v279.29"/>
    <path class="st0" d="M908.08,177.83c6.26,26.92,13.42,53.8,20.78,80.8"/>
    <path class="st0" d="M908.08,177.83c-10.78-46.35-18.91-92.82-20.78-140.18"/>
    <path class="st0" d="M949.64,391.71c0-5.27,0-10.53,0-15.72-.64-18.3,1.36-36.3-3.64-54.3-5.61-21.14-11.43-42.13-17.14-63.06"/>
    <path class="st0" d="M949.64,391.71c0,10.16,0,20.45,0,30.88"/>
    <path class="st0" d="M887.3-2.74c-.55,13.55-.53,27.01,0,40.4"/>
    <path class="st0" d="M887.3-2.74c.18-4.48.42-8.96.73-13.46"/>
    <path class="st0" d="M949.65,671v-248.41"/>
    <path class="st0" d="M928.86,217.31c6.66,23.07,13.76,46.15,20.78,69.38"/>
    <path class="st0" d="M970.43,397.74c-.02,1.28-.03,2.57-.04,3.86"/>
    <path class="st0" d="M896.34-19.31c-4.72,53.23,1.01,104.55,11.74,155.27"/>
    <path class="st0" d="M949.65,286.69c6.31,20.86,12.55,41.83,18.35,63,1.25,4.49,2,9.05,2.43,13.66"/>
    <path class="st0" d="M970.43,406.17c-.03-1.53-.04-3.05-.04-4.57"/>
    <path class="st0" d="M970.43,397.74c.2-11.7,1.04-23.21,0-34.39"/>
    <path class="st0" d="M908.08,135.96c5.76,27.22,12.97,54.27,20.78,81.35"/>
    <path class="st0" d="M970.43,671v-264.83"/>
    <path class="st0" d="M906.33-23.51c-2.2,32.32-1.44,64.35,1.75,96.05"/>
    <path class="st0" d="M928.86,183.91c-9.77-36.63-16.99-73.77-20.78-111.37"/>
    <path class="st0" d="M991.13,401.16c.07,10.97.07,22.34.07,33.88"/>
    <path class="st0" d="M928.86,183.91c6.02,22.57,13.02,44.95,20.78,67.12"/>
    <path class="st0" d="M991.13,401.16c-.02-3.57-.05-7.1-.09-10.58.95-20.9-3.05-41.9-11.05-61.9-3.26-7.61-6.45-15.24-9.57-22.9"/>
    <path class="st0" d="M970.43,305.79c-7.38-18.1-14.34-36.36-20.78-54.75"/>
    <path class="st0" d="M991.21,671v-235.95"/>
    <path class="st0" d="M949.65,210.53c6.17,19.67,13.13,39.15,20.78,58.43"/>
    <path class="st0" d="M991.21,317.35c1.9,4.12,3.83,8.24,5.79,12.34,10.93,22.84,14.94,46.68,14.84,71.04"/>
    <path class="st0" d="M1011.84,400.73c0,.17,0,.33,0,.5.14,13.52.15,27.91.15,42.62"/>
    <path class="st0" d="M919.48-29.45c-4.04,53.36-.36,105.96,9.38,157.51"/>
    <path class="st0" d="M970.43,268.96c6.46,16.28,13.4,32.41,20.78,48.39"/>
    <path class="st0" d="M1011.99,671v-3.35"/>
    <path class="st0" d="M949.65,210.53c-8.52-27.15-15.53-54.65-20.78-82.46"/>
    <path class="st0" d="M1011.99,667.65v-223.8"/>
    <path class="st0" d="M1032.77,397.68c-1.04-21.84-4.95-43.66-14.77-63.99-2.03-4.14-4.04-8.3-6.01-12.47"/>
    <path class="st0" d="M970.43,217.18c6.21,19.16,13.16,38.12,20.78,56.85"/>
    <path class="st0" d="M1011.99,321.22c-7.37-15.55-14.31-31.29-20.78-47.19"/>
    <path class="st0" d="M1032.77,634.83v36.17"/>
    <path class="st0" d="M938.84-38.32c-5.49,59.78-1.12,119.14,10.8,177.16"/>
    <path class="st0" d="M1032.77,397.68c.04.87.08,1.74.11,2.62"/>
    <path class="st0" d="M1032.88,400.3c.31,8.43.22,16.86-.11,25.21"/>
    <path class="st0" d="M970.43,217.18c-8.35-25.78-15.35-51.92-20.78-78.34"/>
    <path class="st0" d="M1032.77,425.5v209.33"/>
    <path class="st0" d="M1053.03,399.88c-.84-23.98-3.26-47.65-13.03-70.19-2.46-5.62-4.87-11.26-7.23-16.93"/>
    <path class="st0" d="M1032.77,312.76c-7.49-17.99-14.43-36.16-20.78-54.5"/>
    <path class="st0" d="M971.61-51.98c-4.11,39.45-4.33,78.83-1.18,117.93"/>
    <path class="st0" d="M1011.99,258.26c-7.9-22.82-14.86-45.88-20.78-69.14"/>
    <path class="st0" d="M1053.55,667.65v3.35"/>
    <path class="st0" d="M1053.03,399.88c.28,7.93.38,15.9.52,23.87,0,14.1,0,28.45,0,43.01"/>
    <path class="st0" d="M991.21,189.12c-10.31-40.55-17.44-81.7-20.78-123.17"/>
    <path class="st0" d="M1053.55,667.65v-200.89"/>
    <path class="st0" d="M1074.39,399.43c0-2.39-.03-4.78-.06-7.18"/>
    <path class="st0" d="M1074.33,414.68c.03-5.07.07-10.16.06-15.25"/>
    <path class="st0" d="M1053.55,251.32c4.99,31.49,10.56,63.22,16.45,95.37,3.19,15.42,4.11,30.56,4.33,45.56"/>
    <path class="st0" d="M1074.33,634.83v36.17"/>
    <path class="st0" d="M1074.33,414.68c-.04,5.68-.07,11.36,0,17.03"/>
    <path class="st0" d="M1032.77,62.04c-2.07-43.52-1.91-87.21,1.26-131.52"/>
    <path class="st0" d="M1032.77,62.04c3,62.99,10.69,125.64,20.78,189.28"/>
    <path class="st0" d="M1074.33,634.83v-203.12"/>
    <path class="st0" d="M1095.11,383.49c.73-20.57,2.52-41.03,5.89-61.8,5.75-33.23,10.74-66.15,14.89-98.89"/>
    <path class="st0" d="M1115.89,222.8c12.46-98.31,17.28-195.06,11.8-293.97"/>
    <path class="st0" d="M1095.11,383.49c-.18,5.16-.29,10.34-.35,15.52"/>
    <path class="st0" d="M1095.11,634.83v36.17"/>
    <path class="st0" d="M1094.76,399.01c-.12,10.96.02,21.97.35,33.12"/>
    <path class="st0" d="M1095.11,634.83v-202.7"/>
    <path class="st0" d="M1115.75,398.57c-.37,11.09-.17,22.3.14,33.56"/>
    <path class="st0" d="M1178.24,179.88c-5.81,25.32-12.78,50.44-20.78,75.34"/>
    <path class="st0" d="M1195.03-54.02c7.63,79.2.74,157.46-16.79,233.91"/>
    <path class="st0" d="M1115.89,395c.88-19.62,3.72-38.85,11.11-57.31,3.32-7.98,6.55-15.99,9.67-24.03"/>
    <path class="st0" d="M1115.89,395c-.05,1.19-.1,2.38-.14,3.57"/>
    <path class="st0" d="M1157.46,255.22c-6.31,19.63-13.26,39.11-20.78,58.44"/>
    <path class="st0" d="M1115.89,632.79v38.21"/>
    <path class="st0" d="M1115.89,432.13v200.66"/>
    <path class="st0" d="M1157.46,321.48c7.39-15.47,14.33-31.11,20.78-46.91"/>
    <path class="st0" d="M1136.67,396.12c1.29-22.34,6.18-44.41,16.33-65.43,1.5-3.06,2.99-6.13,4.46-9.2"/>
    <path class="st0" d="M1136.57,398.14c.03-.67.07-1.34.11-2.01"/>
    <path class="st0" d="M1136.67,644.11v-9.28"/>
    <path class="st0" d="M1136.57,398.14c-.37,7.82-.32,15.66.11,23.5"/>
    <path class="st0" d="M1136.67,644.11v26.89"/>
    <path class="st0" d="M1199.02,217.77c8.4-25.98,15.39-52.31,20.78-78.91"/>
    <path class="st0" d="M1219.8,138.86c11.85-58.46,16-118.22,10.51-178.51"/>
    <path class="st0" d="M1199.02,217.77c-6.19,19.13-13.14,38.08-20.78,56.81"/>
    <path class="st0" d="M1136.67,634.83v-213.19"/>
    <path class="st0" d="M1219.8,208.81c8.19-26.01,15.28-52.27,20.78-78.82"/>
    <path class="st0" d="M1157.79,397.7c-.11-13.43.09-26.83,5.21-39.01,5.13-12.23,10.22-24.49,15.24-36.8"/>
    <path class="st0" d="M1199.02,268.87c-6.64,17.77-13.62,35.44-20.78,53.02"/>
    <path class="st0" d="M1240.58,129.99c10.82-52.2,15.48-105.52,10.19-160.28"/>
    <path class="st0" d="M1219.8,208.81c-6.35,20.16-13.35,40.17-20.78,60.05"/>
    <path class="st0" d="M1157.79,397.7c.06,7.53.22,15.06-.33,22.39,0,16.8,0,33.94,0,51.39"/>
    <path class="st0" d="M1157.46,634.83v36.17"/>
    <path class="st0" d="M1157.46,634.83v-163.35"/>
    <path class="st0" d="M1178.24,634.83v36.17"/>
    <path class="st0" d="M1178.24,419.65c0,.14,0,.29,0,.43,0,16.8,0,33.94,0,51.4"/>
    <path class="st0" d="M1240.58,189.35c9.29-33.33,16.46-67.1,20.78-101.27"/>
    <path class="st0" d="M1178.24,419.65c-.06-7.49-.16-14.96-.1-22.38"/>
    <path class="st0" d="M1178.13,397.27c.02-2.17.05-4.33.1-6.49"/>
    <path class="st0" d="M1178.24,390.78c.48-20.28,2.64-40.15,10.76-59.09,3.41-7.86,6.75-15.74,10.02-23.66"/>
    <path class="st0" d="M1219.8,254.31c-6.47,18.05-13.44,35.96-20.78,53.72"/>
    <path class="st0" d="M1240.58,189.35c-6.09,21.85-13.08,43.5-20.78,64.96"/>
    <path class="st0" d="M1261.36,88.08c4.67-36.91,6.01-74.31,3.09-112.15"/>
    <path class="st0" d="M1178.24,634.83v-163.35"/>
    <path class="st0" d="M1219.8,291.47c7.26-21.58,14.29-43.23,20.78-64.98"/>
    <path class="st0" d="M1219.8,291.47c-5.19,15.43-10.49,30.84-15.8,46.22-4,10-4,21-4.63,31.64-.18,8.82-.27,18.04-.31,27.51"/>
    <path class="st0" d="M1199.02,417.39c0-6.95.01-13.81.04-20.55"/>
    <path class="st0" d="M1261.36,146.39c-5.75,26.91-12.86,53.59-20.78,80.11"/>
    <path class="st0" d="M1199.02,667.88v-33.05"/>
    <path class="st0" d="M1199.02,667.88v3.11"/>
    <path class="st0" d="M1261.36,146.39c11.58-54.23,17.59-109.39,13.37-166.09"/>
    <path class="st0" d="M1199.02,634.83v-217.44"/>
    <path class="st0" d="M1219.8,391.71c0,1.25,0,2.5,0,3.76"/>
    <path class="st0" d="M1261.36,184.99c-6.36,25.6-13.51,51.19-20.78,76.92"/>
    <path class="st0" d="M1240.58,261.92c-6.25,22.11-12.58,44.33-18.58,66.77-2,7,0,14-1.76,21.05-.35,13.22-.42,27.38-.43,41.97"/>
    <path class="st0" d="M1219.8,634.83v20.88c0,3.85,0,7.73,0,11.6"/>
    <path class="st0" d="M1282.14,71.2c2.84-28.82,3.49-57.97,1.04-87.69"/>
    <path class="st0" d="M1219.8,667.3c0,1.23,0,2.46,0,3.69"/>
    <path class="st0" d="M1261.36,184.99c9.36-37.71,17.01-75.45,20.78-113.8"/>
    <path class="st0" d="M1219.8,395.47v239.36"/>
    <path class="st0" d="M1240.58,644.36v15.67c0,3.11,0,6.23,0,9.36"/>
    <path class="st0" d="M1240.58,351.19c.42-14.5-.58-27.5,2.42-41.5,5.73-28.9,12.13-57.18,18.36-85.17"/>
    <path class="st0" d="M1261.36,224.52c7.74-34.79,15.21-69.13,20.78-103.6"/>
    <path class="st0" d="M1240.58,669.39v1.61"/>
    <path class="st0" d="M1282.14,120.92c7.16-44.33,11.19-88.89,8.57-134.96"/>
    <path class="st0" d="M1240.58,634.83v9.54"/>
    <path class="st0" d="M1240.58,391.71v-40.52"/>
    <path class="st0" d="M1240.58,634.83v-243.12"/>
    <path class="st0" d="M1261.36,670.62v-3.01"/>
    <path class="st0" d="M1261.36,670.62v.38"/>
    <path class="st0" d="M1282.14,176.24c11.04-63.06,18.06-124.4,15.81-188.34"/>
    <path class="st0" d="M1282.14,176.24c-3.95,22.53-8.4,45.28-13.14,68.45-5,21-7,41-7.58,61.68-.06,14.51-.06,29.48-.06,44.82"/>
    <path class="st0" d="M1261.36,667.61v-275.9"/>
    <path class="st0" d="M1261.36,391.71v-40.52"/>
    <path class="st0" d="M1282.14,268.77c.51-10.92,1.46-21.89,2.86-33.08,6.34-52.62,13.88-104.03,17.92-155.82"/>
    <path class="st0" d="M1302.92,79.87c2.34-29.91,3.51-59.95,2.6-90.42"/>
    <path class="st0" d="M1282.14,667.65v-32.82"/>
    <path class="st0" d="M1282.14,667.65c0,1.12,0,2.23,0,3.35"/>
    <path class="st0" d="M1282.14,391.71v243.12"/>
    <path class="st0" d="M1282.14,306.27v85.44"/>
    <path class="st0" d="M1302.92,668.37v2.63"/>
    <path class="st0" d="M1302.92,242.98c-.07,6.87-.09,13.76,0,20.67"/>
    <path class="st0" d="M1302.92,242.98c.66-61.74,7.48-122.21,11.08-184.3,1-23,0-45,.28-68.03"/>
    <path class="st0" d="M1302.92,668.37v-33.54"/>
    <path class="st0" d="M1302.92,263.65v128.06"/>
    <path class="st0" d="M1302.92,391.71v243.12"/>
    <path class="st0" d="M1323.7,153.01c-.1,10.55-.12,21.08,0,31.59"/>
    <path class="st0" d="M1323.7,667.65v3.35"/>
    <path class="st0" d="M1323.7,153.01c.49-53.67,3.14-107.87,2.33-161.53"/>
    <path class="st0" d="M1323.7,391.71v-207.11"/>
    <path class="st0" d="M1323.7,391.71v275.94"/>
    <line class="st0" x1="867.07" y1="391.71" x2="866.52" y2="391.71"/>
    <line class="st0" x1="845.74" y1="391.71" x2="845.96" y2="391.71"/>
    <line class="st0" x1="887.3" y1="391.71" x2="887.44" y2="391.71"/>
    <line class="st0" x1="1032.77" y1="400.3" x2="1032.88" y2="400.3"/>
    <line class="st0" x1="1136.67" y1="398.14" x2="1136.57" y2="398.14"/>
    <line class="st0" x1="1157.79" y1="397.7" x2="1157.46" y2="397.7"/>
    <line class="st0" x1="1074.39" y1="399.43" x2="1074.33" y2="399.43"/>
    <line class="st0" x1="1053.03" y1="399.88" x2="1053.55" y2="399.87"/>
    <line class="st0" x1="1115.75" y1="398.57" x2="1115.89" y2="398.57"/>
    <line class="st0" x1="1095.11" y1="399" x2="1094.76" y2="399.01"/>
    <line class="st0" x1="1219.8" y1="391.71" x2="1219.8" y2="391.71"/>
    <line class="st0" x1="949.65" y1="391.71" x2="949.64" y2="391.71"/>
    <path class="st0" d="M1302.92,391.71"/>
    <path class="st0" d="M1323.7,391.71"/>
    <line class="st0" x1="991.13" y1="401.16" x2="991.21" y2="401.16"/>
    <path class="st0" d="M1332.43,391.71"/>
    <path class="st0" d="M1323.7,391.71"/>
    <line class="st0" x1="1011.99" y1="400.73" x2="1011.84" y2="400.73"/>
    <line class="st0" x1="970.43" y1="401.6" x2="970.39" y2="401.6"/>
    <line class="st0" x1="1199.06" y1="396.84" x2="1199.02" y2="396.84"/>
    <line class="st0" x1="1178.24" y1="397.27" x2="1178.13" y2="397.27"/>
  </g>
  <path class="st0" d="M1198.42,1029.81c25.51-24.52,28.79-64.05,25.59-99.28s-11.15-71.27-2.12-105.48c1.48-5.59,3.42-11.22,3.11-17-.3-5.78-3.55-11.9-9.13-13.43s-12.38,4.06-12.38,4.06c-10.72,62.08-22.67,122.22-22.85,185.59-.05,17.2,2.47,37.7,17.78,45.54Z"/>
  <path class="st0" d="M1262.4,770.89c-27.89,116.46-16.51,238.28-4.97,357.47.28,2.87.56,5.74.99,8.59,1.82,12.01,10.71,26.07,22.49,23.1,8.25-2.08,12.11-11.38,14.47-19.55,8.23-28.45,13.1-57.86,14.48-87.44,1.73-37.09,3.47-74.17,5.2-111.26.92-19.61,1.82-39.41-1.58-58.75-2.75-15.63-8.27-30.7-10.57-46.4-2-13.62-1.59-27.74-6.13-40.73s-16.08-25.05-34.38-25.04Z"/>
  <path class="st0" d="M1259.3,1067.97c-.23,5.51-.4,11.29,2.08,16.21s8.56,8.49,13.6,6.27c9.37-4.14,15.76-13.31,18.92-23.05,3.15-9.74,3.49-20.14,3.72-30.38.22-9.74.37-19.48.52-29.21.78-50.02,1.23-101.81-18.66-147.72-3.63-1.78-8.2.49-10.34,3.91s-2.49,7.64-2.78,11.67c-4.58,64-5.17,128.16-7.06,192.31Z"/>
  <path class="st0" d="M1275.69,1029.06c.05,4.23.26,8.87,3.13,11.97s9.34,2.67,10.14-1.48c1.88-9.78,9.41-67.1-10.33-58.25-11.82,5.3-3.07,37.56-2.95,47.76Z"/>
  <path class="st0" d="M1874.73,1732.9c-6.47-.36-9.38-3.72-12.28-7.07-.32-4.8-.5-9.24-1.65-37.79-1.15-28.55-2.3-57.1-2.79-69.12-.48-12.09,1.12-24.01,4.94-52.51,3.82-28.49,7.65-56.98,9.19-68.45,1.86-12.2,9.51-20.88,9.51-20.88,7.34,23.69,4.05,51.4,4.37,75.95.41,30.57.82,61.14,1.22,91.72.38,28.48.57,57.96-10.76,84.09l-1.76,4.07Z"/>
  <path class="st0" d="M1872.31,1566.39c-7.48,36.44-10.39,73.81-8.66,110.96,5.16,3.08,10.08-4.41,11.38-10.29,6.06-27.41,8.95-55.51,8.6-83.58-.09-6.86-4.24-16.42-11.32-17.09Z"/>
  <path class="st0" d="M464.26,1583.02c-9.51-5.11-11.44-17.67-12.26-28.44-2.51-32.95-5.02-65.9-7.53-98.85-.97-12.73-1.94-25.55-.58-38.24,5.01-46.79,5.93-94.02,2.77-140.97-.5-7.49-1.09-15.19,1.17-22.35,2.26-7.16,8.11-13.74,15.59-14.43,12.28,26.09,10.72,63.07,12.55,91.63,2.25,35.04,2.86,70.16,3.48,105.26.87,49.34,1.55,99.97-15.18,146.4Z"/>
  <path class="st0" d="M468.19,1483.65c2.99-54.47,2.64-109.12-1.04-163.55-14.86,2.77-9.9,47.45-10.45,58.49l-3.81,76.61c-.3,6.1-.58,12.41,1.62,18.11s7.58,10.65,13.68,10.33Z"/>
  <path class="st0" d="M314.05,1595.68c-11.53-10.11-18.68-24.3-24.05-38.68-11.49-30.81-15.86-63.66-17.9-96.31-.67-10.67-7.32-72.7,13.6-41.53,7.38,11,6.4,22.6,7.55,35.2,1.48,16.16,5.19,32.02,8.95,47.78,3.8,15.93,7.97,31.81,10.48,48.01.92,5.96-1,43.46,1.37,45.54Z"/>
  <path class="st0" d="M304.16,774.09c9.38-32.46,11.45-66.52,13.46-100.25.63-10.59-.6-21.29-3.62-31.46-2.33-7.87-8.39-16.9-16.39-15.06l-8.96,2.06c-.95,35.79-19.01,66.56-14.78,103.84,1.04,9.19,3.03,18.49,7.92,26.34s13.13,14.06,22.37,14.54Z"/>
  <path class="st0" d="M288.37,681.24c-1.87,10.37-2.49,20.97-1.83,31.49.32,5.19,3.75,12.16,8.52,10.09,6.04-10.57,9.68-22.51,10.56-34.65.31-4.33.24-8.89-1.78-12.74s-6.47-6.72-10.67-5.63-6.55,7.16-3.4,10.14"/>
  <path class="st0" d="M1058.92,0c-2.29,43.97-4.58,87.94-6.87,131.91-.53,10.1,4.95,20.2,4.71,30.3-.39,16.38.15,33.47,7.73,48,7.58,14.53,4.16,25.61,20.09,21.75,16.47-3.98,19.06-22.14,19.69-39.07.63-16.93,1.58-33.28-2.7-49.68-12.13-46.5,3.84-94.98,6.94-143.22"/>
  <path class="st0" d="M1108.51,2160c.8-12.53,1.68-25.04,2.41-37.5,3.54-60.44,7.12-177.27-26.21-177.27-36.46,0-20.35,109.9-22.84,157.81-.99,18.99-1.98,37.97-2.96,56.96"/>
  <path class="st0" d="M1098.43,2026.03c0,25.65,11,62.71-11.7,46.45-5.25-3.76-11.7-20.8-11.7-46.45s-.6-62.71,11.7-46.45c3.9,5.15,11.7,20.8,11.7,46.45Z"/>
</svg>