<svg xmlns="http://www.w3.org/2000/svg" version="1.1" viewBox="0 0 1920 1080">
  <style>
    svg {
      color: oklch(10% 0.01 40deg);
    }
    @media (prefers-color-scheme: dark) {
      svg {
        color: oklch(95% 0.02 40deg);
      }
    }
  </style>
  <g fill="currentColor">
    <path d="M1182.3,685.14c5.53,1.76,8.55,2.2,13.95,3.42,6.83,1.54,12.2,8.66,16.94,9.8,2.67.64,7.11-.8,10.32.52-.1,1.37-2.26.72-3.7,1.54-2.85,1.62-2.75,3.39-6.8,3.3-1.07-2.52-2.95-1.14-4.04-1.62-.25-.11-.5-.68-.81-.81-.48-.21-1.03-.54-1.62-.81-5.67-4.78-7.14-3.64-12.97-6.83-4.26-2.32-3.77-2.62-8.85-4.49-.05-.02-.6-.6-.81-.81-.16-.16-.2-1.09-.81-1.62-.21-.18-.25-.67-.81-.81-.12-.2.12-.61,0-.81Z"/>
    <path d="M1175.84,683.52c-.11-.13.03-.98-.42-1.6-.6-.82-2.24-.38-2-1.63,2.28-.74,7.47,1.77,8.71,3.42.4.53.07,1.25.18,1.42-1.94-.62-4.85-1.01-6.46-1.62Z"/>
    <path d="M232.49,687.15c2.52,1.98,4.38,2.28,7.65,1.22,0,3.94-3.61,6.25.41,9.69l-.41-6.46c3.29-1.33,4.14,1.54,4.4,1.52.59-.04,1.4-.8,2.32-.75s2.35,3.88,2.71,4.09c.4.23,8.08,2.13,8.93,2.24,1.84.26,4.14-.86,5.87-1.45.14,2.98.58,6.55,1.56,9.36.5,1.42,2,2.25,2.32,3.33.47,1.6-.16,3.35.58,5.08,1.42,3.31,12.2,3.96,13.68,8.1,6.7,5.71,17.68-3.33,21.46,6.44-5.19.52-3.06,2.84-3.97,5.34-.64,1.75-2.87,2.29-3.17,3.27-.41,1.32.22,3.55-.23,4.23-.25.37-2.93.69-3.92,1.34-1.09.72-2.19,4.31-4.06,2.79-.32-.26.67-1.57.57-2.02-.08-.35-5.07-3.04-6.02-3.45-.8-.35-2.02.03-2.84-.22-.75-.23-.6-1.56-1.05-1.62-2.83-.33-9.33,6.33-6.81-.76-2.83,2.2-4.25-.63-6.1-.83-1.04-.11-2.64.99-2.78.83-.11-.12.25-1.41-.26-2.14-2-2.84-6.7-4.62-9.25-1.65-.43.5.19,1.78-.73,2.19s-5.37.67-5.94-.02l-.39-3.22c-9.01,9.68-7.82.05-10.19-1.56-.17-.11-3.09,1.33-3.96.74-.34-.23-.05-2.61-.5-3.23-.85-1.18-3.04-1.75-3.55-3.65-.06-.22,2.88-.78,1.63-3.63l2.4.42c-1.79-2.12,1.17-1.74.71-4.33-3.03.29-2.58-3.53-4.72-1.73.59-3.45-3.25-4.41-3.03-8.15.09-1.58,1.53-3,1.41-3.16-.13-.18-4.06-.85-4.02-2.03,0-.18,1.45-1.06,1.53-2.37.3-4.82-3.67-6.2,4.92-7.74-3.14-3.84-1.27-3.36-.9-6,.12-.84-.77-1.97-.72-2.47.31-2.94,3.53,1.67,4.46,2.4Z"/>
    <path d="M635.27,904.11c-1.57,2.53.49,8.84-2.42,9.7-.52-1.34-5.81-4.65-6.46-4.04l-.81,2.42,3.2.08c.19.18.13,1.91.04,2.35-.27,1.31-1.73,2.31-1.61,4.38.07,1.22,2.21,5.33,3.22,5.78.94.42,1.58-1.32,2.69-1.17.71.09,10.29,6.04,12.38,7.07,1.32.66,2.98.62,3.52.9,1.64.84,9.65,5.14,10.27,5.88.27.32,3.31,7.24,3.36,7.65.24,1.87-1.52,2.63-1.52,3.84,0,1.09,1.5,2.02,1.62,3.26.29,2.87-1.45,8.18-1.61,10.52-.13,1.93,1.37,3.98,1.61,6.01-2.66.44-4.55-2.56-5.52-4.58-3.89-8.07-3.47-15.89-9.83-24.11-1.43-1.85-11.74-11.39-13.35-11.7-5.08-.96-9.7-.45-12.51,4.02-1.36.32-4.16-.52-4.85-1.62-.17-.26.04-1.51-.46-2.33-1.66-2.72-3.96-7.19-6.01-9.38-3.13-3.35-7.75-2.28-7.27-8.49.29-3.67,5.14-4.92,2.24-10.73-.64-1.27-4.86-4.99-3.85-6.24,1.31-1.6,1.73,1.64,2.06,1.65,3.22.08,6.45-2.43,8.33-2.85.49-.11,9.6.36,10.08.52,1.76.58,1.84,4.1,3.78,5.1s5.5.49,7.22,1.67c1.33.91,1.55,3.51,2.46,4.41Z"/>
    <path d="M276.51,605.95c-.76,7.35,1.3,3.65,2.84,6.42.35.63-.55,2.36-.39,3.57.2,1.55,3.26,7.45,4.27,8.39.17.16,2.48,1.73,3.47,2.54,1.43,1.17,4.29,1.52,3.45,5.28-.29,1.27-5.53,1.41-6.66,1.25-.62-.09-1.26-3.55-5.79-3.3-1.54.08-1.18,1.67-1.59,1.73-3.03.45-2.52-2.07-3.61-3.48-3.62-4.7-1.14-1.89-1.83-5.75-.14-.79-2.98-3.68-3.4-6.07-.79-4.47,1.24-10.91-3.68-14.23-.14-.3,4.81-1.78,5.99-2.89,2.5-2.34,1.17-5.52,3.7-7.21-.03,1.04.07,5.51.17,6.69.11,1.36,1.54,6.23,3.06,7.05Z"/>
    <path d="M159.88,536.74c3.2,3.25.87,6.38.27,10.23-.42.33-6.1-4.76-6.85-4.87-1.86-.27-1.2,1.97-2.84,2.84-.62.33-5.29,1.32-5.94,1.26-.4-.04-.66-1.53-2.03-2.13-2.34-1.03-4.83-1.72-7.38-1.95,1.94-5.6-.05-1.22-3.54-3.31-.38-.23-5.08-4.09-5.79-4.72-4.44-3.88.69-6.11,4.56-6.11,2.85,0,6.65,2.33,9.56,3.14,2.29.64,7.86,2.56,9.57,2.77,2.15.26,3.89-.78,5.25-.51.36.07,4.71,2.91,5.16,3.36Z"/>
    <path d="M891.41,788.56c1.21-1.2,6.59.13,8.39-.03,3.31-.29,8.03-3.2,11.81-3.2-5.49,6.4-12.62,8.28-21,7.26.34-.76.66-3.89.81-4.03Z"/>
    <path d="M390.44,555.86c-.35,2.74-2.7,3.95-.73,6.8,1.51,2.18,5.06-.64,6.39,2.88-9.83-.6-9.92-3.3-11.5,6.7-.42,2.63-1.48,2.5.18,6.23-6.26,1.47-1.69-5.88-.95-9.51.64-3.13-1.12-4.13,1.74-8.47l4.86-4.64Z"/>
    <path d="M333.71,676.49c.32.1,3.66,3.58,3.91,3.66,1.26.42,3.04,0,4.57.31,1.99.41,2.84,2.11,5.64.6.57-.31.84-2.88,2.21-1.58,1.78,1.7-3.34,2.24-3.82,2.64-.61.5-1.98,4.1-1.89,4.97.07.71,2.52-.07,1.67,2.08-2.64.34-1.55-2.56-3.72-3.96-1.45-.93-3.5-.77-4.98-1.5s-2.81-3.49-4.01-4.22c-2.13-1.31-4.2.32-3.45-3.25,1.29,1.15,3.18.04,3.86.25Z"/>
    <path d="M380.74,706.15c.98,5.36-1.05,6.74-5.73,8.41-4.38,1.56-4.7-2.51-3.95-5.99,1.68.75,4.12,1.28,5.89.82,1.03-.26,1.52-3.91,3.8-3.24Z"/>
    <path d="M410.6,559.14c.12.1.12,3.02,0,3.12-.14.13-2.01.19-3.26,1.2-2.7,2.17-2.55,6.7-6.39,7.75-.48-3.5,3.12-4.4,0-7.26,2.66.19,3.07-1.89,4.34-2.99.76-.66,2.85.51,2.13-2.68.81.73,2.94.67,3.18.87Z"/>
    <path d="M962.52,746.55c-.11.1-1.8.05-2.86.74-1.89,1.23-3.39,2.83-5.21,4.11.15-4.2,3.91-5.05,6.44-6.92.73-.54.71-1.85.84-1.96,2.33-2.01,1.1,3.75.79,4.03Z"/>
    <path d="M1499.85,765.94c.48-1.56,2.98-.71,4.09-.45,2.42.55,7.31,2.5,8.84,4.49-5.49,1.41-7.72-4.57-12.93-4.03Z"/>
    <path d="M946.36,758.67c-1.84,3.12-2.5,8.11-7.27,7.26.37-1.21,6.04-8.46,7.27-7.26Z"/>
    <path d="M472.06,614.84l3.31-4.36,2.33-1.29c.59,6.61-.02,4.42-5.64,5.65Z"/>
    <path d="M189.2,503.28c-.05.09-1.05-.03-1.27.31-.43.67-2.27,5.15-3.53,3.78-1.06-1.16,4.33-4.88,2.43-7.27,1,.02,2.53,2.93,2.37,3.18Z"/>
    <path d="M1246.94,691.6c1.76-.54,3.31-2.23,5.65-1.61,1.58,1.25-4.39,3.97-5.24,3.23-.67.05-.53-1.19-.41-1.62Z"/>
    <path d="M1140.28,680.29c1.4-1.4,4.14,1.3,1.2,2.42-1.72.66-1.42-2.19-1.2-2.42Z"/>
    <path d="M534.67,666.57c.45.51,1.63,1.05.82,1.58-.39-.47-1.62-1.02-.82-1.58Z"/>
    <path d="M582.52,1065.97c.45.24.58,1.52,1.01,1.76.73.43,2.14-.66,2.41-.4s-.11,3.3,2.24,3.93c2.11.57,4.71-1.56,7.3-.47.32.13,3.14,3.97,3.85,4.61,3.93,3.58,9.52,7.07,10.08,12.93-1.56.22-.23-1.7-1.27-2.51-1.77-1.37-4.03.02-5.48-.15-1.27-.15-2.42-1.6-4.15-1.44-.98.09-4.98,4.95-7.26,4.93-.62,0-.36-1.25-.58-1.34-.7-.28-1.69.29-2.48-.22-.79-.5-.79-1.78-1.76-2.24-1.06-.51-2.95,1.14-3.27,1.11-.3-.03-4.62-2.27-5.22-2.61-2.53-1.44-.35-6.43-6.49-1.99,2.38-5.34-2.99-4.38-4.64-5.88-.58-.53-2.97-8.34-2.65-8.66.16-.15,3.26-.3,4.23-.83,1.33-.73,1.02-2.9,3.49-3.24,1.54-.22,9.12,1.88,10.64,2.71Z"/>
    <path d="M1546.72-20.27c-1.73,2.48-9.54,7.9-12.11,8.59-1.71.46-2.49-1.37-4.36-1.32-3.2.09-9.88,3.8-13.07,3.99-.35.02-.26-1.41-.88-1.55-2.88-.66-6.82,1.79-5.94-2.43l-8.07,3.23-.82-10.5h45.25Z"/>
    <g>
      <path d="M1929.71,67.8l-2.01-2.42c-.68,2.83-1.42.53-3.17.82-4.54.75-4.88,2.63-5.32,6.84l4.04-2.01.81,3.23c-.63.66-3.54-3.04-4.03,2.42,1.39.15,3.8-.42,4.9.35,1.97,1.39-1.72,5.18,5.24,3v-1.2l-.45-1.32.45-.05v-12.33c-.54.79-.83,1.7-.46,2.67Z"/>
      <path d="M1925.68,797.46c-.45.35,1.99,1.95,1.62,2.4-.07.08-1.39-.02-1.98.86-.84,1.25-.89,2.2-2.65,3.16-.88.48-1.5,1.08-2.63.85v-3.23s-2.42,1.62-2.42,1.62c2.4-4.71-7.31-7.58-8.79-6.38-2.33,1.9.62,2.53,1.51,3.94l-4.05.41c0,1.14,7.21-1.16,4.45,2.86-.61.89-2.6.23-2.01,1.98.11.32,4.56,4.67,4.86,4.84,3.11,1.76,7.02-.92,3.53,6.8-.57,1.25-3.62,4.32-3.16,4.94,1.64,2.04,6.21,1.02,7.53,1.78.47.27.57,2.05,1.78,2.67.96.49,2.84.18,3.14.48.62.63-.68,5.1,3.77,3.96v-30.6c-1.09-1.15-2.63-4.79-4.49-3.33Z"/>
      <path d="M169.85-13.8v-3.23s-2.41,2.03-2.41,2.03c.09.44-.13,1.09,0,1.2.17.16,1.77-.09,2.42,0Z"/>
      <path d="M1840.03-16.23l-.4-1.61c-2.73,2.43.07,1.28.4,1.61Z"/>
      <path d="M1930.17,78.84v1.2c.12-.04.24-.07.37-.12l-.37-1.09Z"/>
      <path d="M156.92-13c1.08.3,2.01-.82,2.78-.86.64-.03-.04,2.56,2.07,1.68l.4-2.43c1.13,4.16,6.75,4.94,6.07,9.7,2.18.6,1.46-1.4,2.87-2.35.54-.37,5.47-1.08,3.58-2.49-.61-.45-3.02.74-4.07.36-1.9-.69-2.83-4.08-3.19-4.4-.43-.38-7.32-2.58-8.89-3.23,0,2.46,1.96,1.31-1.62,4.03Z"/>
      <path d="M1303.69,669.13c-.6.58.12,2.26-1.53,2.94-6.85,2.82-18.37-3.36-22.9,5.78,2.21.8,1.56-1.59,2.36-2.03.67-.38,1.85.51,2.72.28,1.16-.31,1.63-1.9,3.42-2.26,4.19-.84,11.81,1.15,15.57-.54,1.43-.65,1.57-3.82,2.59-4.32-.33.18-1.65-.41-2.24.15Z"/>
      <path d="M1728.52,699.68c.12-.11,2.26.05,3.26-.37.99-.41,2.27-1.78,2.81-1.81,1.15-.06,2.33,2.02,3.89,2,1.72-.02,4.02-2.08,5.88-2.24,2.39-.21,6,2,8.21-.21,2.69-2.68-.49-3.29,6.49-4.41,1.54-.25,5.84,1.03,5.82-2.66-1.45-.4-1.99,1.24-3.01,1.45-1.48.3-5.33-.15-7.25.69-1.7.75-1.9,3.52-4.05,4.16-2.51.75-4.39-.59-6.2-.41-1.71.17-3.38,2.33-5.77,2.26-4.67-.13-.67-2.27-7.48.54-1.51.62-4.55-.69-4.01,2.91.19,1.31,1.69,2.25,1.42,3.75,1.63-2.51-.59-5.09,0-5.65Z"/>
      <path d="M1928.92,27.8c.24.64.7,1.03,1.25,1.27v-1.37c-.86-.82-1.08-1.7-1.25.1Z"/>
      <path d="M1292.54,632.56l7.72-14.49c-5.45,3.05-6.52,11.64-9.32,15.31-1.76,2.3-4.53.29-6.02,4.89,2.24-.13,6.32-3.89,7.62-5.71Z"/>
      <path d="M353.67,530.83c4.97-.77.08-7.32,5.25-6.49.44-.37-3.61-2.95-2.27-4.75.27-.37,1.8.47,1.46-.89l-5.65.81c-.31,1.24,1.17.48,1.58,1.39,3,6.65-.64,4.24-3.44,5.85-1.25.72-2.43,3.17-3,4.07,2.46-.49,4.9-3.63,6.06.02Z"/>
      <path d="M375.9,590.59c3.52,0,1.49-2.07,1.61-3.23-2.54.13-1.51.39-1.61,3.23Z"/>
      <path d="M1923.92,97.45c-4.53-1.38-3,.24-4.54.98-1.69.82-4.26.7-5.44,3.35-1.1,2.48.95,3.21,1.24,4.43.12.49-1.41-.09-1.69,1.54-.72,4.31,2.08,3.07,3.85,1.01,1.57-1.83.96-5.66,3.49-5.4l-.8,5.64c3.17.42,6.13-1.11,9.29-.84.29.02.57.08.85.15v-4.65c-.32-.08-.69-.26-1.15-.76-2.15-2.36.26-3.82-5.1-5.46Z"/>
      <path d="M1928.91,94.48c1.91,2.13,1.37,2.52,0,4.83l1.26-.5v-4.79c-.41.11-.82.25-1.25.47Z"/>
      <path d="M-37.57-10.55c.47.13,1.13,2.75,3.8,1.6l-1.62,3.22c2.59.29,3.05.3,4.05-2.03-2.93-.7-1.42-2.99.79-4.02-1.35-2.05-2.92-.31-4.84-.42,1.76-2.91.86-5.72-2.46-3.63-.76.48-.43,2.01-1.18,2.03-2.34.07-1.75-2.95-2.02-3.25-.14-.15-3.89.68-4.03.82-.15.15.09,1.77.01,2.42l1.6-.82c1.21,4.94-2.41,1.67-2.42,4.85,3.88-.47,1.52.99,1.87,1.44.36.47,1.17.68,1.36.99,1.97-1.27.55-4.48,5.09-3.21Z"/>
      <path d="M233.67,496.1c-.22-.3-4.92-1.19-5.58-2.93-.85-2.21,1.47-1.98,1.57-2.36.82-2.86-2.16-1.99-3.71-3.58-1.27-1.3-.54-3.16-1.95-3.29.2,2.76-2.22,1.58-2.49,2.04-.7,1.22-.93,4.11-1.58,5.63l3.23-1.2c-.85,13.26,1.45,6.66,5.99,7.22.52.06-.28,2.03,3.72,1.66,0-.83,1.13-2.73.8-3.19Z"/>
      <path d="M123.79,419.7c.04-.71-1.06-.39-1.61-.4-.24.74-1.76,3.1-1.62,3.22,2,.41,2.18-1.66,3.23-2.83Z"/>
      <path d="M253.08,523.52c-.97-2.12-4.43-2.46-6.46-2.42.49,2.95,3.5,2.1,6.46,2.42Z"/>
      <path d="M1931.35,103.9c.73.47,1.19,3.54,4.07,1.53,3.13-2.19-2.3-5.44-2.49-7.72l-2.77,1.11v4.85c.45.11.81,0,1.18.23Z"/>
      <polygon points="1930.17 78.84 1930.17 77.46 1929.72 77.51 1930.17 78.84"/>
      <path d="M1928.91,94.48c.43-.22.85-.36,1.25-.47v-13.98c-6.96,2.18-3.27-1.61-5.24-3-1.1-.78-3.52-.2-4.9-.35.49-5.46,3.4-1.76,4.03-2.42l-.81-3.23-4.04,2.01c.44-4.21.78-6.09,5.32-6.84,1.75-.29,2.49,2.01,3.17-.82l2.01,2.42c-.38-.98-.08-1.89.46-2.67V29.08c-.55-.24-1.01-.64-1.25-1.27.17-1.8.39-.92,1.25-.1v-7.97c-1.35.25-2.73.3-3.98.17-1.23-.13-2.24-1.5-4.09-1.39-1.7.1-3.29,2.09-5.3,1.62-.27-.29.21-5.81-.32-6.9-2.18-4.46-3.21,3.57-3.92,4.28-.77.77-6.38,2.13-7.88,1.8.57-2.01,5.55.74,4.05-2.82-.32-.76-2.09-.2-2.85-1.18-.46-.59-1.4-8.39-2.81-7.3.7,3.35-5.06,4.25-5.69,6.08-1.25,3.66,3.34.7,4.06,2.8-4.92,1.73-4.25-.42-6.46-4.01,1.8-.26,7.4-6.44,7.22-7.58-.37-2.27-8.6-8.43-11.69-8.63-7.37-.47-3.89,3.81-8.44,7.3-.13-.8-.55-3.76-.83-4.03-1.97-1.93-1.26,4.42-3.22,2.41-.18-.18,2.32-3.47,1.62-4.83-2.19.17-4.12-1.4-6.14-1.59-1.83-.17-3.44,2.22-3.5-2.12-.02-1.59,1.04-3.04.65-4.61-.19-.76-4.46-5.02-5.26-5.32-3.13-1.16-.74,2.7-3.51,2.32l2.41,1.6c-2.38-.43-2.54.78-3.63,2.43-1.18-4.53-3.54,1.93-5.55,1.57-.44-.08-4.32-3.96-6.78-4.58-3.4-.86-4.43.57-7.99-2.14-.38-.29-.18-1.21-.28-1.31-.33-.33-3.13.82-.4-1.61l.4,1.61c4.6-1.78,7.62,2.17,12.12,2.42,1.33-3.55-4.94-7.49-5.67-3.24l-1.6-3.22h-11.31l-2.42,4.03c2.57-.93,2.7,2.07,3.73,2.38,1.1.33,3.2-1.1,3.54-.76.1.11-.14,1.81.81,2.85,1.39,1.53,3.79.17,3.99.4.27.3-.16,2.13.84,2.84.67.48,1.99.15,2.57.47,4.4,2.45.75,1.9.6,3.49-.17,1.79,1.12,5.88.9,6.09-.25.24-5.52.86-4.85,4.05h3.22c.36,1.41-1.64.37-1.66,1.23-.02,1.14,1.97,4.11,2.46,3.62l1.61-2.42c.99,4.05,5.26,2.33,5.48,7.82.06,1.4-1.24,2.4-1.22,3.09.01.49,3.72,3.22.99,3.62-2.07.3-3.22-3.18-2.82-4.84-3.48.76-5.47,5.4-8.87,3.23.32,2.57,3.23,3.35,2.42,6.47l2.41-.81c.17.17-1.45,3.03,1.23,4.03,2.21.82.3-2.71,2-2.41,0,1.05-.42,1.67.64,2.41,1.93,1.34,3.38.85,4.17,1.2,2.56,1.14,1.45,3.75,5.69-.38-1.73,6.85,6.68,3.27,7.29,9.7l3.21-2.42c.47,1.52-.83,3.23-.83,4.39,0,.6,2.05-.08,1.65,2.47-.3,1.95-3.96-.61-3.25-2.82-1.7-.6-2.77,2.28-3.61,2.24-.77-.04-2.23-2.54-4.45-.62.68-3.1,1.98-5.91-1.23-8.07l-.39,2.41c-4.77.97-7.17-2.27-10.5-4.84-.18,3.73,1.45,7.08-3.47,5.48-3.66-1.19-5.07-8.79.24-7.1-.13-.96.31-2.33-.15-3.1-.34-.57-10.76-4.55-11.12-5.05-.34-.48.29-2.97.68-3.49.67-.9,2.34-.32,2.5-.48.18-.18-.7-3.13-.83-3.23-1.96-1.45-5.89,3.21-4.83,5.66-2.77-.81-.57-2.95-.74-4.36-.07-.56-1.56-.37-1.55-.85,0-.74.94-1.35.33-2.84-1.24-3.01-3.06.17-4.07-.02-1.25-.23-1.9-5.1-2.05-6.48l-1.6.82V2.36c-.96.67-3.31,3.27-3.66,4.09-.56,1.34.97,5.78-1.61,6.41-2.03.5-3.43-5.31-6.05-4.86-.6-.82,6.13-4.75,6.47-6.87.07-.47-1.46-.24-1.63-.91-.36-1.48.26-3.52-.18-5.35-.49-2.01-2.08-4.27-2.24-5.92-.14-1.36.85-3.36.73-3.49-.3-.35-1.85.55-1.53-.86,2.35.22,5.46-.48,7.25-2.05,1.45-1.28-.39-1.64-.79-2.8h-248.87c-.26,4.18-2.73,2.82-3.23,3.24-.45.37,1.51,2.73.4,3.24l-2.83-.82c.64-.73.58-2.74.98-3.08.68-.58,2.52.58,2.25-.94l-3.23-1.62h-1.62c.22,1.94-.23,2.48-1.84,3.42-4.79,2.79-14.51,2.63-12.71,10.32,1.63-.74,8.37,1.3,8.88.78.23-.23-.26-2.03.06-2.32.43-.4,3.02.21,4.28-.2,1.26-.41,1.61-2.55,2.99-3.48,1.73-1.16,9.3-3.35,10.91-2.13,4.87,3.7.31,5.99.39,6.95.05.63,3.99,2.39,4,3.22,0,2.24-5.6,2.31-7.25,1.22.73,1.46,2.88,1.64,2.41,4.03-3.19,0-4.06.98-4.45-2.43-3.32,1.05-6.38.29-8.47,3.65-.31.83,1.47-.07,1.62.8.02.13-1.63,1.85-1.74,1.91-.53.32-2.61-2.04-3.92-1.51l1.61,1.62-2.42.81c4.06,2.55,2.06,4.84,1.62,8.88l2.41-1.62c-.15.99.26,4.61,0,4.85-.12.11-3.11.12-3.22,0-.21-.22.97-4.43-2.85-3.98-3.15.38,2.07,6.52,1.23,7.2-.23.19-1.84-.24-2.65.01-.74.23-.56,1.62-1.04,1.63-.76.01-2.1-1.16-2.67-.78-.37.25-3.07,5.41-3.9,5.62-6.84,1.67-7.88-.99-7.52-7.29-2.72,2-1.16,6.75-3.27,9.68l-9.64-3.21-.41,3.23c-1.32-.41-5.4-4.66-5.76-4.77-1.38-.44-4.33,1.53-6.39,1.59-6,.19-11.93-4.12-8.68,7.25,3.37,2.24,11.18-8.67,13.14-2.04.28.94-4.03,1.02-4.84.4l.8,3.22-3.23-.8c2.2,4.09-1.27,4.57-3.23,7.25l6.47,3.65c-2.79-.54-3.38,2.03-3.61,2-.27-.03-5.03-1.47-5.2-1.68-.75-.94,1.43-6.85-6.11-4.82-1.05.28.38,3.25-1.64,2.47-.2-.08-3.39-2.38-3.5-2.57-.63-1.07.62-4.99,1.27-6.11.87-1.5,2.27-1.65,2.47-1.96.27-.41-1.92-1.44,2.57-2.68-2.46-4.93-4.26-4.6-9.28-6.08-1.47,1.16,2.77.49,1.19,2.42-.32.39-3.72,1.9-4.85,1.28-.99-.54-2.9-4.69-2.41-5.31,5.11,2.27,3.24.08,4.81-2.02,2.73-3.66,8.28-4.83,9.32.4,4.07-5.31,11.56-4.31,17.35-6.51-1.76-2.05,1.04-1.36.83-1.97-3.15-2.53-.29-1.82.56-3.07.25-.37,3.06-5.87,3.15-6.21,1.13-3.97-3.62-3.9-6.38-3.09-2.2.65-2.75,4.68-7.02,2.66-3.02-1.43-3.38-3.53-8.7-4.23-3.85-.51-9.54,1.4-10.93.59-.48-.29-.56-1.33-.78-1.44-.62-.3-1.76.63-2.27.29-1.11-.74-1-3.83-1.74-4.34-.57-.4-2.13-.05-3.01-.58-1.13-.68-1.95-2.45-3.03-2.69-1.23-.28-2.65.91-3.77.62-.28-.07-3.63-4.1-3.75-4.38-.91-2.13,4.74-.86,5.96-1.3,1.86-.67.17-4.47,4.53-3.14l-1.61-3.23h-135.75c.64,1.58-2.13,3.84-1.56,4.79.06.1.95,0,1.22.35,1.94,2.52,1.47,3.12,5.19,2.14-1.74,2.16,1,1.38.8,2.01-1.64,3.81-5.4.18-5.65.41-1.61,1.49,1.78,1.65,1.61,2.02-2.56,1.66-4.93,4.63-7.21.66-.84-1.45.06-2.59-.05-2.66-.29-.17-6.18-1-6.71-.88-.9.21-1.12,2.44-1.77,2.46-.29,0-3.14-2.81-5.26-1.61l.8-2.42-1.62.4c-.54-.92,2.02-2.33,1.62-2.81-1.38-1.66-13.16.35-15.7-.05-2.24-.35-3.65-2.45-4.9-2.41-.42.01-.29,2.77-2,1.62-.09-.06.25-1.34-.98-1.87-2.68-1.16-6.46.71-7.92-2.16h-551.88c.03.79-.57,4.21-1.21,4.05-.82-.21-.14-1.32-.45-1.57-.23-.19-2.63,2.11-3.99-2.48h-6.46c-.16,4.25,4.16,4.75,4.72,7.87.38,2.16-.54,3.27-1.49,5.05,9.21-1.42,6.24,7.69,2.42,12.12,3.29,1.17,6.21-1.36,8.55-1.65,1.06-.13,4.06,3.44,2.34,3.28l-2.81-.82c1.41,5.34-5.82,10.36,3.21,9.28-5.13,5.7-5.58-2.31-9.63-3.61-1.99,3.11-1.37,5.53-.05,8.86-1.65.13-4.88-.72-5.54,1.33-.47,1.46-.88,6.72,1.49,5.96v.79c-2.13,1.41-6.17.62-6.41.84-.41.38.35,3.97-3.28,3.21,3.41,7.64.38,4.58-.81,5.65-.4.36,1.61,3.25.46,4.87-.63.88-6.56,3.11-8.12,3.22-2.35.22-.74-1.3.17-1.47,1.26-.23,3.54.09,4.16-.28.99-.59.55-5.04,1.33-6.35.5-.84,2.41-1.18,2.82-2.03.16-.32-4.94-1.26-.83-5.5.65-.67,1.56-.42,2.15-.82,1.38-.93,1.38-3.22,5.15-2.16-.08-3.65-2.21-6.57.81-9.69-4.34.63-1.27-1.76-1.62-4.85-.6-.62-6.44,3.16-4.03.01.75-.97,8.51-2.82,8.89-6.89.76-8.2-5.29-4.24-6.47-5.25l.81-4.03h-3.24c3.24-3.61-.68-4.58-1.96-7.33-.5-1.08-.37-3.07-.47-3.19-.17-.21-3.31,1.45-4.84-1.21-.98-1.71,1.41-.54,1.98-1.15,1.82-1.94,1.63-3.22,5.29-4.1h-66.26c.5,2.4-2.06,2.53-1.62,0h-1.62c-1.42,3.25-3.97,2.75-5.66,0h-7.27c.66,3.59-3.83,3.75-4.05,4.06-.18.25,1.86,4.13-1.6,4.83,1.23-1.71-.67-3.83-.62-4.44.12-1.5,4.13-1.54,3.04-4.44h-138.17c.41,3.7-.92,2.65-2.96.9-4.59,2.56-6.25,9.57-11.39,11.4-1.35,8.92-18.81,8.63-11.51,20-3.54,1.33-9.46,1.91-12.48-.84-.7-.64-3.4-5.45-3.69-5.61-.22-.12-4.35,2.19-4.5,2.39-.79,1.1,2.98,9.92,1.81,14.05-.85,3-4.29,5.15-4.41,5.49-.22.57,1.54,3.13.25,3.93-1.39-1.25-1.18-5.59-1.94-6.69-1.79-2.6-4.48-4.82-7-8.62-2.07-3.14-6.22-4.57-1.16-8.12-3.4.37-6.09,3.1-9.7,2.41,1.82-2.43,4.08-1.1,6-4.11,2.68-4.2-2.05-6.18-1.92-7.61.06-.66,4.66-2.72,4.81-4.42-3.7,1.73-7.13-3.02-7.86-3.24-1.1-.33-2.78.13-4.3-.36-5.19-1.67-13.65-4.13-12.08-10.95H156.92l2.43.82c.14.12-.81,1.69-.82,2.41,1.57.65,8.46,2.85,8.89,3.23-.12-.12.1-.76,0-1.2l2.41-2.03v3.23c-.65-.09-2.24.16-2.42,0,.36.32,1.29,3.72,3.19,4.4,1.06.38,3.47-.81,4.07-.36,1.89,1.41-3.04,2.13-3.58,2.49-1.42.96-.69,2.95-2.87,2.35.68-4.76-4.94-5.54-6.07-9.7l-.4,2.43c-2.11.88-1.42-1.72-2.07-1.68-.77.04-1.7,1.16-2.78.86,3.57-2.72,1.61-1.57,1.62-4.03-1.79-.74-3.32-2.91-5.15-2.37-2.19.64-.72,4.23-1.71,5.6l-2.02-6.46H-53.16V.74c4.54,1.54,3.95.18,6.46-3.22l-4.04-1.62c6.08,1.21,4.15-1.62,5.34-2.52.62-.47,2.16-.35,2.74-.72-.19-.3-1-.52-1.36-.99-.35-.45,2-1.91-1.87-1.44.01-3.18,3.63.09,2.42-4.85l-1.6.82c.08-.65-.16-2.28-.01-2.42.15-.14,3.9-.97,4.03-.82.27.3-.32,3.32,2.02,3.25.76-.02.42-1.55,1.18-2.03,3.32-2.09,4.22.72,2.46,3.63,1.93.1,3.5-1.63,4.84.42-2.21,1.03-3.72,3.32-.79,4.02-1.01,2.32-1.46,2.31-4.05,2.03l1.62-3.22c-2.67,1.15-3.33-1.47-3.8-1.6-4.54-1.28-3.13,1.94-5.09,3.21.59.94,1.61,1.7,1.63,2.82.01.93-1.98-.27-1.62,1.21,4.68-1.18-.22,4.02-.01,7.27l-1.6-7.26c-.27,1.14-.35,3.99-1.04,4.67-.33.32-1.47.07-1.89.43-1.56,1.35-1.88,3.39-5.15,2.99-.26,1.28,1.56.81,2.08,1.59.49.73.05,6.32-2.89,4.87v373.31l3.22,1.62c-.02-.8.13-1.61.5-2.33.59-1.15,1.65-3.61,2.74-4.13.24,2.39-1.3,7.93-.6,10,.52,1.54,4.49,2.71,5.84,4.56,2.24,3.06-1.31,6.09,5.27,6.45-.93-4.27,1.84-3.32,4.85-4.85.48,3.27-2.48,3.42-1.58,6.69.15.54,1.09.56,1.29.9.47.79.21,1.96.32,2.09.09.11,1.28-.69,1.88-.57,4.47.94-2.93,5-4.33,3.81.35.31-.6,1.52,2.55,2.69,4.72,1.75,3.46-.64,3.94-1.04,1.49-1.24,1.6,1.17,1.85,1.33.8.52,2.01.13,2.16.25.82.64-2.96,3.58-2.84,4.83l-2-2.42-1.62,6.46c4.22-.18,3.43,2.04,4.27,2.96,3.61,3.94,6.91,8.15,10.64,12.45,2.63,3.03,6.93,3.56,4.49,9.65,2.49.66,3.22-2.1,5.3-2.44.35-.06,6.67-.02,7.13.05,3.47.53,6.8,4.85,8.85,4.64,1.3-.13,2.58-1.72,4.14-1.88,2.25-.22,8.74,2.22,8.53-1.18,1.54-.1-.02,1.85,1.96,1.64,1.27-.13,7.75-3.47,8.6-4.46.22-.26-.34-4.37-.62-5.08-.41-1.04-1.81-.88-1.82-1.53-.01-.6.86-1.09.37-1.9-.77-1.29-1.89.09-2.3-.07-.55-.2-.51-.98-1.24-1.47-1.21-.82-2.68,1.14-.91-3.3,1.32-.35.38,1.4,1.31,1.62.78.19,1.84-.12,2.72-.01,1.11-6.12-1.31-4.03-2.48-5.35-1.29-1.46-.44-5.23-3.97-4.36l3.23-.81-.81-2.41c4.3.52,1.56-1.28,1.86-3.53.18-1.33,1.67-2.87,1.39-4.55,1.34-.24.95,2.09.78,2.79-.75,3.07-3.07,1.89,1.64,4.88-2.8.74-.84,1.45-1.07,3.11-.67,4.73.05,1.8.93,5.19.42,1.62-.21,5.76.34,7.67.1.36,3.18,6.1,3.53,6.19,2.16-.65,5.47-2.44,7.04-3.94.81-.77.3-2.04,1.04-2.54.79-.54,2.55.08,2.63-.03.14-.17,1.77-3.32,2.06-3.93.32-.67-.49-1.65-.13-2.2.68-1.04,2.36-.04.61-4.25,4.5-.26,1.01,5.91,1.62,6.45,3.3,1.21,3.82-1.24,4.63-1.57,2-.81,4.72,1.19,3.84-3.26.87,3.76,7.56,2.3,9.3,4.04.8.8.36,1.61-1.15,1.5-4.13-.31-6.33-2.31-10.38-.52-1.03.46-1.89,1.9-2.7,2.05-2.43.46-3.73-2.56-5.97,2.21,2.41.57.59,1.65,1.61,3.62-2.07.66-2.05-2.03-2.54-2.29-2.81-1.55-2.66,2.19-3.34,2.88-1.28,1.3-4.21.22-3.66,4.95,3.33.93,15.89,13.16,18.03,13.02,1.16-.08,1.82-3.73,2.09-3.94.69-.53,5.56,2.19,7.03,1.36,2.79-1.58,2.14-6.52,5.82-7.08-.78,4.63-5.8,6.01-2.4,10.5,3.58-3.05,1.54-.49,3.43.28,2.33.95,3.44-1.97,3.03,2.15,2.02-1.53,4.2.32,6.03.04.34-.05,1.97-5.47,4.47-4.89l-2.42,4.83c3.26.2,6.95,1.11,10.12,1.23,1.21.04,2.45-1.06,3.88-1,2.9.13,5.32,3.13,6.96,3.47.92.19,1.54-.96,2.05-.95,1.09.02,1.96,1.4,3.12,1.18.23-.04,3.79-2.52,3.81-2.76.11-1.47-2.74-4-2.46-4.37.05-.07,1.4.23,1.6-.56.65-2.52.82-8.37,1.59-10.38.86-2.25,2.46-1.4,2.45-3.63-.94.28-3.44-1.16-3.95-.71-.09.08-.25,2.56-.89,1.52-.32-.52.64-1.96-.81-1.61.39,3.3-3.44.35-5.67.79l3.23-1.62c.65-1.3-1.98-2.73-1.62-3.21l3.23-1.22c-1.41-3.18-5.8-1.32-7.15-2.15-.18-.11-.9-2.58-1.71-3.54-.84-1-3.35-2.21-3.26-2.39.23-.45,1.25-.85,1.38-1.73.26-1.75-.6-7.49,1.23-9,2.3-1.9,10.75-.78,10.32-5.83-2.26-.46-3.84-.36-3.23-3.24l5.5,2.58,2.17,6.3c2.77-3.18-.94-6.34-2.83-8.88,1.73.08,6.86,3.71,7.68,4.84,1.1,1.5-2.59,1.3-2.86,2.02-1.26,3.41,2.23.98,2.44,1.22.07,1.39-.39,2.74-.8,4.04.56,0,1.65-.31,1.61.4-1.05,1.17-1.23,3.23-3.23,2.83-.14-.12,1.38-2.48,1.62-3.22-2.26-.02-3.08.1-5.65-.8-.57,2.32,1.54,3.16,2.42,4.83-3.36,1.05-5.71-.35-4.84,4.05l3.22-.8v4.84s-2.41-2.42-2.41-2.42c.22,1.43-.34,3.59,0,4.84,4.6-.7,4.67,2.24,7.29,4.58l-4.86,15.29c.64,1.57.13,6.86.44,7.65.64,1.63,5.05,5.6,5.92,6.93,3.32,5.15,4.07,11.06,5.99,14.63.33.61,3.95,3.05,4.65,4.02.64.89.51,2.75,1.16,3.49,1.02,1.16,2.78.39,3.52.96.23.18,1.43,3.43,2.95,4.72.15.13,3.27,1.03,3.63,1.59,1.23,1.88-3.25,1.58-1.6,3.21.22.22,5.65,1.7,5.95,1.66.46-.06.4-1.23,1.15-1.57.68-.31,1.73-.16,2.5-.55,1.37-.69,3.3-2.79,4.55-2.78,1.59.01,2.27,2.08,3.2,2.18.8.09,3.19-1.31,4.9-1.4,2.12-.11,3.93.92,5.58.82,4.23-.24,5.94-7,9.34-8.46.39-2.56-1.82.1-2.41-.39-.23-.19-1.39-4.6-2.08-5.64-1.14-1.72-3.24-.96-2.78-3.26,2.74-.31,5.05.3,6.87,2.42l.41-2.42c1.36-.37.42,1.49,1.2,1.63,3.32.63,4.82-7.76,4.46-8.1-.4-.37-2.69.78-2.43-.8,4.3,1.48,3.72-3.09,2.24-5.89-1.03-1.96-3.07-1.66-4.25-3.02-.23-.27-3.51-5.81-3.57-6.16-.17-1.01,2.31-2.14.16-5.73-.76-1.27-2.25-1.39-2.54-2.34-.96-3.06.55-5.5-3.36-8.37,5.82-1.17,3.53,2.25,5.06,6.65,1.08,3.1,3.79,6.9,5.07,10.29.46,1.23.12,3.47.5,3.93.33.39,2.29-.02,3.48,1.77,2.41,3.61.99,11.56,6.42,9.63,8.13-2.89,4.21-6.47,3.71-12.88,1.55.21,1.16,2.84,2.06,3.99,1.96,2.52,2.02-.52,3.13-1.6,1.24-1.19,3.77-2.65,4.42-3.69,1.01-1.62.46-3.89,2.12-5.18l3.61,1.62c1.33-5.3-2.51-4.22-3.15-4.91-.79-.86,1.04-5.48,1.97-6.37,1.47-1.4,5.06-1.31,5.28-2.11,1.07-3.91-2.47-4.38-2.51-4.85-.04-.65.92-1.9.83-3.13-.12-1.67-3.7-5.7,0-5.3-.81,2.33,1.01,3.9,1.36,5.4.19.83-.64,1.97-.41,2.93.34,1.47,3.39,2.35,2.21,5.72-.89,2.54-7.18.26-7.27,4.98,0,.2,1.76,3.28,1.9,3.4.58.5,2.09-.15,2.27.64.26,1.14-.12,5.44-.78,6.35-.91,1.53-4.63-.4-4.85-.25-2.07,1.42-1.72,10.53-3.5,12.66-.76.91-3.43.68-3.76,1.1-.36.45.07,2.32-.27,3.34-1.7,5.19-12.41,2.18-12.76,4.26-.18,1.05,1.66,2.02,1.64,3.21-.02,1.09-1.44,1.97-1.46,2.44-.02.46,6.16,6.26-1.78,5.24l.8,3.22-4.05-.39,2.84,3.62c2.34-3.71,6.26-3.42,10.29-3.02.71.07,1.48,1.34,2.51,1.28,1.58-.09,2.73-2.61,4.57-2.29l-.81,3.22c9.05.57,11.66,1.76,12.13,11.32,6.72,3.75,11.84,10.23,16.97,15.35,1.98,1.98,5.2,5.24,7.27,6.87.85.67,1.01,1.83,2.02.41,1.25-1.76.66-6.84-.03-8.84-.35-1.02-2.39-1.52-2.03-3.69.09-.56,3,.41.04-3.63l4.85.79c-2-3.18.72-2.14,2.42-4.45.49-2.29-3.52-2.12-4.84-2.01-.61.05-2.53,1.55-4.04.81l2.42,3.22-5.66-.81c1.53-3.36-.09-1.91-1.11-3.27-1.11-1.49-.4-3.64-3.72-3.19-.18-1.36,2.71-1.04,3.06-2.91.14-.78-.62-2.9-.64-4.36-4,.36-3.2-1.6-3.72-1.66-4.54-.56-6.83,6.04-5.99-7.22l-3.23,1.2c.64-1.52.88-4.41,1.58-5.63.26-.46,2.68.72,2.49-2.04,1.41.13.68,1.99,1.95,3.29,1.56,1.59,4.53.72,3.71,3.58-.11.38-2.42.15-1.57,2.36.67,1.74,5.37,2.63,5.58,2.93.33.46-.8,2.35-.8,3.19,2.29-.21,5.26-1.53,8.08-.8-2.39,2.78-6.02,3.67-5.65,8.07,2.45-1.61,6.71-1.91,2.42.4l4.85,2.02,1.61-2.01c-.16-.81-6.77-1.12-1.2-6.07.17,2.78,1.7,7.53,4.04,4.04.79,3.11,5.85,1.4,3.62-1.61l-1.2,1.61-3.63-4.04c3.89,1.89,1.82-.85,3.43-2.23,1.65-1.41,6.03-.79,7.48-2.61l.4,3.21c1.28.27.32-1.01,1.45-1.58.54-.27,1.58.11,1.78-.04.14-.1-1.07-2.27-1.26-3.22-.76-3.79-.71-1.65-1.42-3.4-1.96-4.82.6-3.81,1.88-7.11-3.81.82-1.49-2.14-3.65-4.04-8.41,6.16-5.43-1.45-5.23-7.28h3.23c-4.21,5.1,1.43,6.24,5.66,4.86-2.52,5.56.78,3.3,3.64,5.63,3.05-2.5-.31-2.42-.43-2.81-.61-2.07,4.28-5.29,4.74-7.47.28-1.3.28-2.81-.66-3.86,2.97.09.99,6.02,1.61,6.88.72-.16,3.71-2.77,4.02-2.42,1.92,2.13-4.19,3.79-4.57,4.25-.17.2-1.06,2.49-1.05,2.63.21,2.65,5.26-1.49,5.62-1.22.58,2.85,2.4,5.58-1.6,4.85l-.8-2.42c-.6,1.05-1.1,3.56-1.62,4.28-.4.57-4.39.97-2.43,2.98,1.25,1.28,3.69-2.06,4.62-2.31,1.26-.34,2.84.69,3.5.33,1.15-.62,1.42-3.54,1.58-3.66.31-.24,1.9,1.32,2.92,1.43,2.42.26,6.68-4.01,4.33.99,3.99-.38,1.7.72,2.01,2.01.25,1.01,2.15,2.01.82,2.85-1.62-.94-6.6-6.4-8.47-4.85-1.55,1.29,1.58,1.83,1.63,2.02.8,2.96-3.37,2.78-4.02,3.7-.67.94,2.78,4.03,1.18,6.41-1.81,2.69-2.66-1.39-2.92-1.54-.21-.13-3.39,1.46-4.76-.09v2.44c-3.21-1.33-2.43-.94-2.43,2.41l8.07-1.61c-.33,5.22-2.31,1.95-4.03,2.77-1.63.79-2.89,5.91-5.26,6.92-2.57-5.21-2.43,2.94-2.83,3.23-1.63.58-2.79-1.23-3.75-1.38-1.18-.19-2.54.82-3.82.63-.33-.05-3.11-5.43-2.13,2.37-5.94-3.42-1.91,6.54-8.07,4.86,1.16,2.09,1.89-.77,2.42,2.42,2.04-.04,5.49.3,6.46,2.42-2.96-.32-5.97.53-6.46-2.42-.54.01-1.08-.04-1.61,0-.75,2.8,1.04,6.06.88,8.5-.12,1.85-1.56,2.81-1.7,4.08-.27,2.42,2.72,5.19,3.84,7.43.81,1.61.67,3.85,1.43,5.09.38.63,10.36,5.43,12.54,7.6,9.21,9.18,10.18,23.02,11.28,35.18.59-4.13,3.71-10.7,5.66-14.54-1.75,1.43-4.16.65-4.72-1.4-.16-.6.68-11.84,1.05-12.34.78-1.06,1.83-1.11,2.9-.44l4.81,6.9c1.81,1.27,2.33,2.63,4.85,3.23.16.04,2.55-.81,3.23,0,.12.14-1.09,2.57,0,3.62-2.43.77-2.98-.24-3.24-2.01-5.57,1.24,1.47,4.29.81,7.27.52-.22,2.08.11,3.22-.38,2.36-1.01,4.59-3.09,7.08-3.5,2.19-.35,5.61.83,5.85.65.28-.21.53-3.6.94-3.93.52-.42,3.99-.09,5.12-.94.38,5.06,1,2.35,3.91,3.37,1.65.58,1.46,3.51,3.78,3.1-.89-3-3.17-8.88-3.22-11.82-.04-2.98,3.28-2.73-1.61-6.37v-1.17c4.78-1.34,2.12-2.19,1.91-3.79-.36-2.81-1.69-9.95-3.54-12.02-1.28-1.42-3.68.21-4.84-1.58.78-1.09,4.37.08,4.85-.4.46-.46-.97-4.09.79-4.04.76,1.41,1.19,8.48,1.64,8.89.17.16,4.03-1.12,4.01,1.2,0,.49-4.54,3.02.01,6.47-4.57,1.42,1.96,6.84,2.3,8.23.37,1.48-1.25,4.44-.67,6.96.15.67,1.46.59,1.86,1.54,1.05,2.54.66,9.53,4.59,7.5,5.44-2.8.08-8.28,0-12.05-.01-.59,1.79-.83,2.42-1.28.88,2.94-.16,4.69,3.23,3.63-4.63,5.62,1.44,3.42,2.43,4,3.48,2.06,3.85,13.41,5.26,13.36,2.53-.31,2.17-6.18,4.03-5.64.87.25,1.33,4.02,2.23,4.66,1.23.88,7.57,2.01,8.69,1,.63-3.02-3.7-2.12-4.01-2.44-.32-.33.22-2.47-.01-3.44-.19-.79-2.02-.99-2.67-2.36-.69-1.47-.33-4.14-.69-4.57-.28-.34-4.72-.75-5.92-2.57-.73-1.11-1.44-6.29-.25-7.1.5-.34,4.05.15,2.22-2.53-.21-.31-4.06-1.24-5.63-4.48,6.1-2.06,1.43-2.04,1.61-2.42,7.59-4.22,1.62-6.58,2.04-12.53-.6-1.52-3.1.59-3.65,0-1.04-1.11.09-5.97.01-6.8-.07-.71-1.74-.53-2.28-1.82-.73-1.73-1.81-11.58-.97-12.4.35-.35,2.86.59,3.23-.39l-4.02-4.05c3.03.52,5.55,1.8,4.84,5.26l-3.25.42c-.15,6.23,6.85,9.18,4.86,14.93h4.03s-1.61-4.84-1.61-4.84c1.5-.21,3.45.27,4.84,0,.57-.91,1.75-3.36,3-4.07,2.8-1.6,6.44.81,3.44-5.85-.41-.91-1.9-.14-1.58-1.39l5.65-.81c.34,1.36-1.19.52-1.46.89-1.33,1.8,2.71,4.38,2.27,4.75-5.18-.82-.28,5.72-5.25,6.49-1.16-3.65-3.6-.51-6.06-.02-2.72,4.31-5.3,7.73-4.03,12.93,3.97-1.71,6.18-4.31,8.88.8-9.14-.76-2.5,5.37-6.47,9.7,3.18-1.02,3.03,3.94,4.05,6.47,1.94,1,3.89-5.71,5.26-3.25,1.23,2.21-.8,8.94,1.61,9.7,3.04.97,2.65-3.69,4.08-4.02,1.86-.43,4.12,2.15,3.64,4.36-.19.87-2.01-.06-1.66,1.27,3.2-.01,3.6-2.98,6.45,0-.32-1.74.97-3.68.81-5.22-.13-1.17-1.41-1.91-1.42-3.11-.11-8.6,11.14.88,11.93.25.13-.1.92-2.88.75-3.12-.34-.47-3.44-.86-3.11-2.83.33-1.49,4.71-3.5,4.73-4.13,0-.11-.67-1.97-.75-2.04-.62-.52-5.13,2.1-4.03-.39,2.56-5.83,7.59.07,11.74.38,2.55.19-.62-2.79.77-2.4,4.89,1.35,2.61,3.08,2.83,3.22,2.09,1.29,2.86-2.44,5.42-3.05,5.15-1.23,5.27,1.43,5.6,1.47,2.74.37,10.6-2.02,7.66-5.96-.66-.88-4.09-1.06-4.71-4.31-.26-1.36,1.9-3.03-1.03-2.7v-.79c2,.15.97-.33,1.19-1.61l2.04.8c-2.25,3.88,2.26-.23,2.41,0,1.44,2.67-2.92,3.58-1.25,5.7.69.88,7.51,2.02,8.59,1.23.69-.51,2.77-11.6,2.37-13.39,2.32,1.34-.2,5.87,0,7.64.2,1.79,1.79,6.96,2.59,8.77.43.98.54,2.86.64,2.98,2.21,2.47,1.43-4.6,1.62-4.85,3.81,2.09.34,6.61,4.84,9.69-2.68,1.01-3.94-1.82-5.37-2.18-.67-.17-1.65.59-2.68.17-.56-.23-11.02-7.75-9.73-2.44,1.84,3.18,6.64,2.61,8.39,3.72,1.43.91,3.89,4.78,5.94,5.42,1.35.42,7.68.28,8.97,1.1,1.82,1.16-.71,13.06,7.39.27-3.61-1.27-1.02-2.85-3.2-4.86,1.83.14,2.47,2.78,4.82,2.02.32-1.79,1.59-3.95.42-5.68-.39-.58-1.72-.62-1.92-.87-.13-.17,1.1-2.72.75-4.2-.2-.84-2.09-.8-2.42-1.87-.42-1.36.77-2.84.58-3.85-.22-1.13-3.97-2.93-.64-4.53-.72,3.86,1.95,3.85,3.23,5.64-4.36,1.77-.94,4.69,3.24,2.44-1.21,1.77-3.78,1.79-2.03,4.9,2.39-.3,2.24,1.88,3.31,2.2,1.73.51,4.57.21,7.37,1.62,4.45,2.24,1.66,3.79,2.06,6.13.18,1.03,1.88,1.49,1.4,2.93h-3.22s.8-7.27.8-7.27c-5.89,6.1-3,.32-3.22.01-.15-.21-4.64-1.78-4.84-1.63-.21.15-2.21,4.38-2.27,4.63-.25,1.15.53,2.73.43,4.16-.66,9.36-2.79,4.27-5.54,7.72-1.24,1.56.13,3.21-.25,3.73-.78,1.05-2.72.43-3.51.94-.68.44-1.03,3.26-1.75,4.12-.78.94-3.09.79-3.75,2.15-.48.98,1.03,1.89.99,2.82-.01.38-2.53,6.86-3.75,6.1-.52.79,3.69,1,2.29,5.11-.96,2.82-4.08.25-5.78.65-1.45.34-5.9,6.21-10.26,4.72l.82-1.6-5.66-.82,1.62-4.03c-4.89,1.83-2.17-4.11-4.43-3.23-4.87,1.9-2.49,5.03-4.05,8.88-5.17-2.79-3.57-6.22-2.84-11.3-1.47-.21-.03,1.79-2,1.69-1.47-.07-4.56-2.44-5.26-1.69-1.58,1.66,2.03,2.94,2.3,3.73.43,1.28.04,2.98.12,4.35-3.46,1.51-5.07-1.6-5.38-1.65-1.32-.22-2.76.79-4.38.5-2.02-.36-.85-2.67-3.16-2.08-2.01,5.36,1.77,1.6,2.41,5.66-1.74-1.48-3.08.6-3.64.59-.21,0-3.49-2.05-3.62-2.22-.67-.94,5.91-6.9-3.24-6.44-.12,1.16,1.91,3.22-1.61,3.23.1-2.84-.93-3.1,1.61-3.23.11-1.09.8-2.11.8-3.23-1.32-.35-.39,1.4-1.32,1.62-5.56,1.35-.25-5.84-3.12-5.65-1.45.1-1.07,3.87-1.22,4.03-.37.4-3.51-2.38-4.44,1.61l-1.61-4.84c-1.26,3.8-3.11,1.45-3.53,1.73-.35.24-.75,2.64-2.53,2.32.35,1.61,3.28.97,2.41,3.61-.62,1.9-3.97.33-4.03,2.02,2.42-.34,2.77.08,2.43,2.44l8.88-2.43c1.75,1.56-7.52,4.6-5.65,6.46.95.94,2.79-2.3,4.4-2.38,3.86-.19,10.2,4.65,12.47,7.74,1.98,2.7,1.65,2.12,3.38,4.05.16.17,2.13,3.9,2.19,4.13.84,3.12-1.77,6.86-1.39,7.41.44.63,12.07,6.23,13.49,6.34,1.53.12,2.88-.78,4.46-.5,1.89.33,2.8,2.56,4.63,2.31-.41-2.28,3.8-5.93,5.88-6.65,3.78-1.31,10.59-.16,14.11-2.45,1.94-1.27,1-3.29,6.38-3.75,5.55-.47,16.44,6.4,17.28,6.02.39-.18,5.91-5.71,6.07-6.11.48-1.18-.48-2.3-.28-3.45.21-1.22,1.52-2.13,1.48-3.39,0-.23-2.53-.9-3.7-1.99-.78-.73-3.59-4.78-2.78-5.7,2.24-.5,4.3,4.58,5.43,4.81,1.16.24,3.96-.2,4.26.04,1.73,1.34-3.33,1.88-1.61,3.22.87.68,12.68,1.03,14.15-.76.16-.19.55-4.7.39-4.89-.25-.29-5.96-1.03-7.53-1.77-3.32-1.57,1.09-2.75,3.72-2.12,2.57.62,2.88,3.5,5.87.66,1.31-1.24.55-2.68,2.37-2.45.33.04,1.49,3.8,5.26,2.91,4.26-1,7.12-6.23,8.1-10.18,3.58-.76-.24,6.62-.78,7.71-1.13,2.26-4.53,3.82-2.48,6.44-1.29.8-1.37-1.69-1.7-1.89-2.05-1.31-2.36,1.34-2.87,1.46-1.67.39-3.97-.72-5.1,1.27,1.8,7.45,3.18,3.73,6.84,3.73,1.99,0,6.91.39,8.93.65,2.22.29,5.37,2.51,6.32,2.31,3.6-.75,3.88-5.48,4.52-5.97.44-.33,9.87-2.06,10.88-1.97,4.37.41,5.57,4.48,7.13,5.11,3.27,1.32,9.61,2.15,12.72,3.38,2.74,1.09,7.58,6.69,9.7,7.33,2.68.8,5.46-1.13,8.34-.47.57.13,1.16,2.7,3.27,2.26,2.58-.53,4.31-7.28,9.69-5.39,1.94.68,1.03,3.94,4.6,2.78,4.8-1.57,8.12-8.68,9.63-9.04,3.2-.77,5.01,2.4,8.53,2.18.8-.05,7.27-3.15,7.5-3.49.42-.62.1-2.07.63-2.97,2.55-4.36,4.09-3.3.65-8.89-.74-1.21-2.58-.16-1.75-3.51.27-1.1,4.8-7.84,5.51-8.27,1.65-1,4.55-.18,6.46-.41,1.31-3.38-4-8.07.02-10.08.41-.2,6.37-2.07,6.83-2.11,3.39-.32,6.52,2.57,9.88,1.15,2.12-.89,1.04-3.18,2.4-4.37,2.41-2.11,5.71-.21,8.54-.94,2.08-.54,5.07-4.61,7.55-2.32,1.28,1.18.33,2.69,2.29,3.47,2.97,1.18,4.15-2.4,6.58-2.6,2.2-.18,3.28,2.08,4.9,2.26,1.72.19,4.06-1.79,7.09-1.41,4.1.51,4.22,4.5,6.93,5.32,1.67.51,5.96-.4,8.09.31,0-4.19-2.57-6.13-.24-10.29,1.3-2.33,5.79-1.97,6.66-7.13,1.11-6.5-.79-9.73-5.6-13.7,3.04-.71,1.72-4.72,4.03-6.05,1.12,2.04-1.68,5.12-1.53,5.95.13.72,2.48,2.34,3.22,4.09,1.45,3.45,2.3,10.67-.02,13.83-1.13,1.53-6.39,3.5-6.54,4.14-.54,2.19.16,6.98,3.27,5.93v.79c-2.53-.51-1.13,2.78-2.35,3.71-.36.27-8.28.2-9,.03-1.62-.37-4.22-5.1-6.83-5.36-1.77-.18-4.48,1.14-7.28.85-2.17-.23-4.47-2.1-6.31-1.7-1,.21-.78,3-3.21,3.1-3.28.14-3.21-2.72-4.58-3.48-2.87-1.6-3.63,1.17-5.46,1.86-2.46.92-6.86-.2-8.3.55-2.39,1.24-.81,6.4-8.42,5.28-1.49-.22-2.74-1.49-4.08-1.52-.37,0-6.72,1.54-7.12,1.71-2.76,1.16-.15,2.9.2,5.13,1.2,7.56-3.08,3.99-6.44,5.6-.63.3-4.61,5.83-4.74,6.66-.31,2.14,2.87,4.5,3.12,7.17.31,3.21-1.94,4.43-2.28,6.57-.17,1.08.77,2.53.68,2.63-.25.26-5.85,1.68-6.8,2.35-.94.66-.28,2.19-.49,2.51-.12.18-4.04-.14-4.25-.19-2.38-.58-4.49-3.14-7.34-2.15-1.69.59-1.34,3.29-2.36,4.55-.4.49-5.1,4.69-5.78,5.08-6.09,3.43-4.58-.6-7.73-2.04-3.02-1.39-3.18,2.02-5.23,3.67-4.46,3.58-10.13-1.18-16.16,0-1.77.34-2.42,1.88-3.89,2.57-8.33,3.9-6.38-1.42-9.66-2.85-2.25-.98-5.94-1.89-7.42.32-3.19,4.75,2.09,6.42,3.2,10.42.71,2.55,1.52,6.7-2.05,5.69,1.83,3.82.52,2.88-2.41,4.43,3.21,3.07,3.4,6.89,7.68,9.29,3.91-4.92,9.84-5.89,13.22.51,2.81,5.32-.19,3.62-1.56,4.87-.59.54-2.1,3.79-1.57,4.31.12.12,1.45-.28,2.17.23,2.29,1.65,2.55,1.24,3.44,1.81,2.08,1.33,5.68,3.9,4.08,6.05-2.84-1.97-4.7.82-6.06.82-1.14,0-1.98-1.64-3.07-1.48-.88.12-2.28,1.92-3.8,1.48-.36,1.39,1.02,2.23,1.28,3.17.94,3.32-2.91,2.12-2.94,1.1-.02-.7,1.51-3.33-.36-3.45-.11,0-1.91.75-1.98.84-.85,1.1.83,4.11.78,5.15-.01.27-3.02,1.23-1.64,4.5h-4.84c-.52-2.37,1.77-1.5,2.79-3.25,1.26-2.16.26-4.07.62-5.83.2-.96,3.12-3.22.2-3.06-5.47.3-3.35,3.95-4.56,4.76-.53.36-3.15.07-5.03,1.02-3.31,1.68-8.93,9.21-12.19,11.24-2.92,1.82-7.21.34-8.93,4.83,3.59,6.86,10.7,2.79,14.47,9.77.73,1.34.58,3.12,1.25,4.22.5.83,2.21,1.13,3.19,2.67,3.28,5.16,3.34,15.77.91,21.31,2.65.72,1.16-1.9,1.66-2.33.58-.49,4.92.27,6.66-.25,1.54-.46,2.01-2.71,3.79-2.26-1.37,2.34,4.94,4.54,2.84,5.5-.07.03-.47-.5-1.55.19-.31.2-.24,1.18-.87,1.44-1.45.58-8.2-.16-8.49.15-.9.96.02,1.45,1,1.81,1.24.46,6.92.71,8.67.59-.53,1.11.99,3.91.83,4.04-1.4,1.25-6.33-.44-.82,5.66-2.17.72-4.85-2.21-6.08-2.42-.32-.06-1.39,3.83-5.56.88-.7-.5-.34-1.82-.72-2.2-.88-.89-3.51-3.64-4.06-4.07-2.15-1.72-5.6-2.04-8.25-1.69-.46.06-.37,1.1-.54,1.15-2.34.74-3.27-.99-4.68,3.92.07,1.04,9.44,2.87,11.07,3.44,6.01,2.12,13.62,7.78,19.02,9.28,1.54.43,2.68-.39,4.58.21,1.99.63,2.69,2.86,4.28,3.81,3.96,2.36,8.27,2.78,12.73,2.23-.81-3.7-3.8-4.02-2.42-8.08,1.39-4.08,7.69-5.65,11.74-5.52,1.24.04,11.84,3.74,13.12,4.46,1.41.79.91,1.8.99,1.86,6.45,4.79,4.26,6.08,8.04,10.14,2.1,2.25,6.22,3.39,7.58,6.56,2.69.19,5.88,5.1,8.08,4.97,1.13-.07,2.81-1.73,4.36-2.1,1.16-.28,3.43-.41,5.47-.86,1.04-.23,2.39,1.06,3.89-1.94.54-1.08.21-2.69.78-3.62.16-.27,4.54-3.91,4.83-4.03,2.25-.93,7.16.59,8.74-.57,1.17-.86.18-3.62,1.91-5.36,2.27-2.29,8.69-1.86,9.19-3.67.15-.53-.75-1.78-.64-1.89.1-.1,1.84-.1,2.83-.81,4.09-2.92,3.78-7.5,4.43-12.15,2.49.89,2.44,3.77,3.62,5.65,6.56-4.53,15.06-8.9,22.99-10.14,6.39-1,11.91.54,17.46.34,2.56-.09,7.48-3.24,10.86-2.31l-4.03,2.41c5.78-.41,10.74,4.42,16.6,4.14,1.53-.07,1.1-1.64,1.53-1.61.89.06,2.37,1.12,3.69.72l-3.22,1.6c4.54.83,8.74,2.7,13.36,3.25,16.04,1.94,25.99,1.87,41.06,11.41,11.53,7.3,11.53,22.06,22.21,29.5,4.57,3.19,17.71,8,23.17,8.37,4.39.3,7.12-1.57,10.53-1.65,12.75-.28,21.02,9.62,31.48,9.79,2.3.04,4.27-.88,6.42-.91,6.35-.08,14.61,1.4,19.8-2.82,1.52-1.23,2.12-2.86,4.07-4.42,3.58-2.87,4.42-1.05,8.44-1.66,4.61-.7,22.71-8.04,26.24-10.93,3.41-2.8,4.66-6.57,8.12-9.66,4.12-3.68,8.5-7.77,12.87-10.53,4.83-3.05,5.32-6.63,8.95-10.48,6.11-6.46,13-9.5,19.84-14.1,4.25-2.86,7.68-9.65,11.66-13.37,11.56-10.77,12.47-6.16,25.26-9.5,4.65-1.21,11.35-6.35,14.82-7,3.13-.58,6.97.46,10.29-.22,6.75-1.39,14-9.56,22.07-10.32,7.37-.7,11.34,1.11,17.71,1.63,5.29.43,12.91.16,18.94.44,10.1.47,18.2-1.93,27.83-3.78,2.1-.4,4.75-.77,6.7-1.38,2.55-.8,3.43-2.8,5.92-2.57-.66-2.9,1.99-3.45,3.23-4.85,1.9-2.13,5.13-5.61,8.11-6.84,5.28-2.17,11.03,2.29,15.93,3.4,4.81,1.09,10.92.58,15.56,2.21,13.52,4.75,25.84,11.56,39.75,16.01,1.71.55,3.28,2.34,5.45,2.64,7.29,1,15.09-4.04,21.86-6.11,1.41-5.03,6.24-1.57,7.93-2.58.3-.18.61-1.62,1.33-2.26,4.25-3.79,14.82-19.62,16.22-25.02.65-2.51.12-4.8.76-7.32,1.25-4.96,3.19-4.06,3.67-10.89.3-4.27,1.19-2.71,3.14-4.12.72-.52.78-1.9,1.38-1.96.64-.07,2.2.91,3.55.83,1.5-4.6,4.26-2.58,6.02-4.89,2.8-3.67,3.87-12.26,9.32-15.31l-7.72,14.49c-1.3,1.82-5.39,5.58-7.62,5.71-.61,1.87-.27,4.15-1.58,6.1-1.55,2.29-4.69,2.06-5.5,2.98-.34.38-3.81,8.81-3.92,9.49-.3,1.84.55,3.17.19,4.92-.23,1.09-3.77,3.47-3.73,5.59,2.94-.53,5.35-1.68,8.48-1.68,3.65,0,7.12,2.05,10.43,1.66,2.55-.3,4.22-2.59,5.93-3.02,1.86-.46,3.71.08,5.42-.23,1.74-.32,2.96-1.59,4.87-1.61,4.02-.06,7.15,3.66,10.49,4.11,2.12.29,4.7-.26,6.9-.05l-2.42-1.6c3.87.83,8.25-.9,11.72-.89,2.71.01,4.24,1.7,6.43,1.72,2.68.02,6.84-1.46,9.74-1.63,16.42-.96,29.5,5.49,45.41,7.9,6.04,2.15,11.27,9.42,14.12,14.97,1.3,2.53,2.02,6.85,3.12,8.8,4.25,7.56,28.61,19.89,36.74,25.68,5.99,4.27,9.12,12.36,14.5,15.39,1.85,1.04,3.6.94,5.7,2.38,3.23,2.21,4.71,7.12,7.24,8.92,1.91,1.35,4.67,1.64,7.16,3.34,6.53,4.45,5.32,6.72,15.08,9.97,12.42,4.12,23.03,7.78,34.37,14.92,4.11,2.59,4.05,5.88,10.47,5.75,3.84-.08,11.46-4.76,14.94-6.96,1.07-.68,1.25-2.12,2.22-2.83,6.94-5.08,16.39-2.09,24.05-2.56,10.65-.66,23.09-9.75,32.98-13.73,6.11-2.46,16.7-3.61,20.76-8.33,2.67-3.1,5.05-9.24,8.94-11.26,1.74-.9,4.02-.74,5.76-1.51,7.33-3.25,11.7-10.71,20.29-13.64,5.9-2.01,10.11.5,16.18-2.41,4.94-2.37,4.77-5.25,7.22-7.73.87-.88,4.58-1.85,5.22-2.86.78-1.23.46-4.03,2.09-5.99,5.28-6.34,27.93-10.83,36.53-13.97,8.93-3.25,16.66-4.57,25.78-7.35,12.58-3.83,12.58-5.25,26.59-5.66,6.9-.2,17.46-4.8,24.45-5.51,11.67-1.19,16.22,9.99,22.59,10.39,3,.19,8.03-3.28,11.46-3.82,12.89-2.02,23.81-.67,37.41-5.41,1.49-.52,9.24-3.37,9.93-3.74,6.73-3.61,15.77-12.82,23.43-16.23,2.44-1.09,5.12-1.04,6.97-1.92.55-.26,1.28-.78,2.1-1.43V108.32c-.28-.07-.56-.13-.85-.15-3.16-.27-6.12,1.26-9.29.84l.8-5.64c-2.53-.26-1.91,3.57-3.49,5.4-1.77,2.06-4.57,3.3-3.85-1.01.27-1.63,1.8-1.05,1.69-1.54-.29-1.22-2.34-1.94-1.24-4.43,1.17-2.65,3.74-2.53,5.44-3.35,1.54-.74.02-2.37,4.54-.98,5.36,1.64,2.94,3.1,5.1,5.46.46.5.83.69,1.15.76v-4.85l-1.26.5c1.37-2.31,1.91-2.7,0-4.83Z"/>
      <path d="M1932.01,28.56c1.38.07,2.76-.36,4.15-.38.1-4.02,0-8.07.03-12.09-1.23,2.03-3.57,3.18-6.02,3.64v7.97c.43.41,1.01.81,1.84.85Z"/>
      <path d="M-33.78,407.18l-1.6,1.21c-.04.84,1.38.19,1.61.4-.14-.12.09-1.15,0-1.61Z"/>
      <path d="M1894.01,671.65c-14.21,5.69-27.1,4.48-40.94,6.74-4.37.71-8.98,3.34-13.48,3.54-6.96.32-12.32-9.43-20.18-9.77-2.41-.11-3.85,1.12-5.87,1.52-3.47.68-4.67,1.34-7.6,2.03-11.93,2.81-22.03,1.25-33.97,4.82-12.82,3.83-25.5,7.58-38.45,11.65-5.95,1.87-24.46,7.25-28.07,10.71-1.66,1.59-3.21,3.6-2.83,6.07.81,5.22,6.38-1.2,8.9-1.69,2.2-.42,3.91.83,6.02.5,1.16-.18,2.06-1.34,3.34-1.57,2.45-.43,5.18-.07,7.63-.86.27-1.51-1.23-2.44-1.42-3.75-.53-3.59,2.51-2.29,4.01-2.91,6.81-2.81,2.82-.67,7.48-.54,2.39.07,4.06-2.1,5.77-2.26,1.81-.18,3.69,1.16,6.2.41,2.14-.64,2.35-3.41,4.05-4.16,1.92-.84,5.77-.39,7.25-.69,1.02-.21,1.56-1.85,3.01-1.45.02,3.68-4.28,2.41-5.82,2.66-6.98,1.12-3.8,1.72-6.49,4.41-2.21,2.21-5.82,0-8.21.21-1.86.16-4.16,2.22-5.88,2.24-1.56.02-2.74-2.06-3.89-2-.54.03-1.83,1.4-2.81,1.81-.99.42-3.14.26-3.26.37-.59.56,1.63,3.14,0,5.65-2.01,3.1-5.35.87-8.32,1.78-1.2.37-1.77,2.08-3.43,2.3-1.77.23-3.4-1.03-5.42-.71-1.89.3-7.06,4.43-7.84,3.88-.35-.25.04-2.33-1.93-2.3-2.04.04-8.21,8.97-11.27,10.57-6.13,3.2-15.26,2.38-20.57,4.48-3.14,1.24-9.29,7.8-12.84,9.78-3.19,1.78-8.59,2.2-10.78,3.76-2.1,1.5-3.16,5.76-4.86,8.07-7.52,10.18-13.13,8.27-23.46,11.29-3.37.98-6.99,4.89-9.88,6.28-4.58,2.21-22.57,9.24-26.92,9.45-2.86.14-6.74-2.19-9.63-2.22-10.68-.11-17.79,11.46-27.89,12.78-.17,1.05-.21,1.03.51,1.68,1.26,1.13,3.48,1.64,5.17,3.55,4.96,5.62,3.73,8.96,12.74,11.5,9.79,2.75,20.9,5.86,30.67,8.11,5.93,1.37,19.35.57,19.59,9.09-1.31-.16-1.1-1.8-2.43-2.81-6.18-4.7-20.69-5.18-28.48-7.07-3.19-.78-5.64-2.82-8.5-3.62-5.91-1.66-14.47-1.63-19.18-5.87-2.03-1.83-3.57-5.79-5.19-7.52-2.15-2.3-20.17-13.88-23.55-15.45-2.21-1.03-5.2-1.14-7.42-2.28-1.44-.74-2.54-2.68-3.57-2.93-1.41-.34-3.12,1.1-5.29.54-2.32-.6-6.88-4.62-8.7-5.5-3.45-1.66-9.31-2.42-12.1-3.66-1.71-.75-26.55-21.05-29.02-23.5-4.29-4.25-6.58-10.74-12.57-14.09-2.02-1.13-3.86-.55-5.9-1.37-.9-.37-10.7-8.25-13.13-9.9l1.62,4.84c-.65.07-1.92-.25-2.31.1-.23.21-1.63,5.55-1.7,6-.04.28,3.27,3.29,3.6,4.41,1.23-6.04,7.33-5.06,2.84.43-1,1.23-3.17,2.02-4.51,3.57-1.19,1.38-1.05,3.44-2.78,4.08v-3.23s-2.02,1.61-2.02,1.61c-1.32-.58-.32-2.23-1.18-2.81-1.56-1.06-6.98-1.86-7.2-2.16-.66-.91-1.09-4.98-2.53-6.33l3.22-.82.81,4.84c.19-3.81,4.71-5.74,8.09-5.66-1.57-3.36-6.38.09-6.81,0-.49-.1-3.37-4.16-2.87-4.85,2.84,2.12.71-2.82,4.03-2.42.47.56-1.27,7.14,2.36,4.79.36-.23.42-2.48,1.01-3.02.15-.14,1.51.67,1.92-.08.81-1.51-.31-3.87,1.18-4.93-3.1-2.1-7.9-5.64-10.48-8.51-5.97-6.64-7.41-14.97-12.53-21.41-2.67-3.36-12.61-8.42-17-8.86-3.41-.34-8.41.86-11.24-.91-.86-.54-.93-1.85-1.91-2.3-11.92-5.44-26.88,1.46-39.15-.17-1.86-.25-3.34-1.99-4.88-2.06-2.51-.11-6.37,1.41-9.07,1.45-3.33.05-8.31-1.71-11.71-.07-1.03.5-1.16,3.67-2.59,4.32-3.76,1.7-11.39-.3-15.57.54-1.79.36-2.26,1.96-3.42,2.26-.87.23-2.05-.65-2.72-.28-.79.44-.15,2.83-2.36,2.03,4.52-9.14,16.05-2.96,22.9-5.78,1.65-.68.93-2.36,1.53-2.94.59-.56,1.91.02,2.24-.15,1.19-.63,3.06-2.17,4.84-2.83-1.07-.7-3.21-1.61-4.43-1.64-5.97-.14-12.75,3.88-17.88,4.38-5.64.56-9.41-1.43-15.68.5-3.65,1.12-4.72,5.35-6.59,8.74-1.71,3.1-2.04,3.85-3.48,7.02-2.29,5.03-8.5,8.56-13.82,9.62-5.71,1.14-6.27,1.45-11.47,3.07-5.11,1.59-11.89,1.82-16.5,3.72-2.45,1.01-3.32,3.24-5.24,3.6-3.79.72-2.15-.19-2.68-1.44-2.6-.06-2.41-.63-4.04-1.62-.28-.17-.53-.57-.81-.81-.24-.21-1.04-.32-1.62-.81-8.4-3.78-14.72-4.82-21.82-11.31-.28-.25-.57-.52-.81-.81-.55-.66-.55-1.21-.81-1.62-.16-.25-.6-.46-.81-.81-3.02-.78-3.51.94-6.46-2.42-5.48-2.05-5.87-2.03-11.53-3.42-6.46-1.59-11.76-7.06-18.33-.99-1.52,1.4-2.39,4.65-4.08,6.42-3.98,4.16-14.4,7.34-19.82,8.06-1.31.18-2.61,1.98-3.61.84,1.97-2.53,4.84-1.71,7.49-2.2.9-.17,2.53-1.66.19-1.43-5.8.62-11.05,2.32-16.57,4.05l6.46,2.41c-4.65-1.16-10.67.86-14.75.62-3.27-.19-7.16-2.64-10.7-3.04-8.11-.91-15.52,2.48-23.48,1.66-3.03-.31-5.02-2-7.96-1.64-9.1,1.1-19.66,11.56-25.24,11.82-2.25.1-4.16-1.08-6.96-.33-2.24.6-5.98,3.77-9.06,3.8v1.64c-4.14.03-10.35-.71-14.44-.51-3.12.16-13.12,6.6-15.59,8.89-3.14,2.9-6,9.58-9.79,12.66-3.95,3.22-10.14,2.82-12.51,9.13-.44,1.17.35,2.42.09,2.81-.22.33-2.33,1.07-3.12,1.78-3.88,3.48-9.37,7.44-12.55,11.29-2.04,2.47-3.74,7.27-6.42,8.93-5.14,3.19-7.06.82-12.52,7.68-1.77,2.23-4.3,7.9-5.73,8.82-2.96,1.91-8.48,1-11.25,2.48-1.63.87-4.66,5.2-8.36,6.99-7.38,3.59-8.88.91-14.5,1.64-3.46.45-8.21,3.82-12.34,3.9-2.33.04-4.56-1.01-7.25-.9-8.7.36-11.81,2.54-20.58-1.16-7.24-3.06-10.76-7.06-19.8-6.92-2.94.05-5.99,1.48-8.91,1.67-8.47.56-26.93-6.03-33.15-12.08-6.86-6.67-7.6-16.81-16.13-23.46-4.15-3.24-12.07-6.8-17.21-7.84-11.93-2.42-26.22-2.47-38.43-4.55-2.77-.47-11.32-3.98-13.29-2.81-.56.33-1.12,2.99-2.01,3.65-1.49,1.09-4.88.04-4.63,2.65h-.79s-.35-1.53-.35-1.53c-3.86,1.18-8.15.91-12.11,1.62-6.99,1.25-13.6,3.7-20.27,5.66-2.87.84-5.57.03-9.3,1.53,1.32,2.64,1.03,7.2.85,10.14-.24,3.89.11,8.04-4.89,7.64.03.12-1.09.54-.43,2.33,1.63,4.42,7.61,9.54,8.45,13.48,1.39,6.47-.78,19.34-3.58,25.4-4.24,9.18-5.73,3.63-12.08,4.08-.65.05-9.54,3.05-9.93,3.4-.93.82-.96,3.84-2.06,5.23-.75.95-6.96,4.99-7.02,5.48,2.24,1.81,5.25.76,8.04,1.68,2.08.68,2.84,3.16,3.76,3.44,4.98,1.53,15.7.28,21.08,3.6.55.34.7,1.75,2.02,2.4,1.49.73,15.39,2.73,17.21,2.66,2.21-.08,4.73-4.04,6.05-2.86.36.32-2.67,3.86-2.42,4.02,1.11.03,2.38-.19,3.44.2,3.13,1.16,15.13,5.67,17.09,7.15,1.12.85,4.57,8.02,6.11,9.84,6.92,8.2,12.83,5.35,18.75,18.64.73,1.64,3.9,9.61,3.88,10.66-.05,4.01-8.83,6.01-11.31,7.24-1.68.84-2.74,2.04-4.27,3.03-.79.51-2.59.39-2.88.73-.94,1.11.86,7.58-3.35,6.35-.5,1.48,2.3,2.8,1.57,3.99-.04.07-1.16-.04-1.56.62-4.21,6.81-1.61,8.32-2.76,13.17-.95,4.01-8.33,13.32-11.81,15.73-1.2.83-3.69,1.15-3.87,1.38-.39.49.02,2.11-.55,3.06-2.31,3.85-10.09,8.17-12.72,13.97-.96,2.11-1.36,6.89-3.43,8.69-1.36,1.19-3.53.71-5.34,1.15-.77.19-1.35,1.21-1.54,1.26l2.83,4.04c5.52-10.7,4.01,2.71,4.52,6.84.23,1.86,2.45,4.54,2.35,6.42-.18,3.59-6.56,6.78-5.67,10.99l-1.6-.82-.82,6.86-1.61-1.2c.28,2.44-.45,4.45.61,7.07,2.32,5.74,27.22,20.53,33.71,26.08,7.04,6.02,15.5,14.35,21.43,20.99,4.25-5.43,3.67.89,5.75,2.34.19.13,3.67-1.02,4.36-1.51.76.58-.73,1.57-.33,2.25,1.04,1.77,10.35,3.38,7.18,8.23-3.07-2.96-3.64-.67-6.06,1.61-2.35.96-.57-3.76-.38-4.43l-3.24.39c2.06,4.68.8,6.41,1.79,9.93.1.36,4.01,5.99,4.29,6.24,2.66,2.35,7.65-2.23,8.47-1.62-1.56,2.13.77,1.62,2.43,3.63,3.15,3.83,6.67,9.72,8.88,14.14h69.49l2.82-3.23,2.84,3.23h189.88c-7.4-4.78-1.99-8.54-1.24-12.83.19-1.1-.74-3.76-.37-4.13.26-.26,2.03.51,2.86.42.7-.08,1.33-1.15,1.59-1.14,2.04.08,2.99,5.83,3.43,6.9.5,1.21,2.4,3.03,2.62,3.92.15.62-2.37.83-2.4,1.61-.04.91,5.13,2.38-.02,5.25h231.9c-.43-1.26-2.9-3.5-2.95-4.45-.02-.28,1.95-5.07,2.18-5.25.16-.12,2.85,1.32,4.01.81l-1.61,3.22c2.37.46,4.11.95,6.46.01l-.8,5.65h432.29c.1-2.67,6.47-2.81,5.65-4.43-.9-1.76-4.69-1.46-5.45-2.24-.48-.49-.14-1.98-1.49-3-1.29-.98-3.39.2-3.55-.02-.07-.1-.08-2.34,0-2.43.23-.28,1.79.81,2.46.43,2.68-1.5,1.48-6.9-2.45-2.85v-3.23c4.63,2.16,2.48-.33,3.42-1.42.12-.14,3.04-1.68,3.22-1.71,3.91-.68,6.6,3.86,9.83,3.18.92-.19-.04-2.03,1.3-1.66-.8,1.87-.89,3.89,1.22,4.84.53.24.4-8.94,7.66-1.61-.79-2.85,4.19-5.7,4.05-6.05-.68-1.71-4.02-2.87-4.84-4.44,1.38.43,3.52-.91,4.39-.84.68.06,5.65,11.02,5.36,12.39-.08.36-2.68,2-3.03,2.05-1.18.17-2.06-1.48-2.28-1.48-.36,0-2.36,3.59-5.68,3.72-.91.04-1.32-2.39-2.78-.1,4.96.9.03,8.5,1.6,10.1.83.85,5.66-2.44,6.46.81h16.16c-.2-2.52,2.01-4.06,1.5-6.68-.42-2.17-5.85-8.16-6.33-11.51,2.88,1.13,3.53,5.44,4.81,7.94.37.71,1.59.48,1.63.55,3.29.35,2.04-3.56,2.43-4.05.24-.3,5.13.47,6.24,3.06,2.08,4.85-.93,5.02,6.68,5.85l-2.42,4.84h63.83c-.27-3.8-4.43-2.89-4.85-3.24-.35-.3,1.39-8.68,1.62-9.09.33-.61,3.82-2.34,4.01-2.2.51.38.39,3.55,4.07,2.41-.13-.89.23-3.83.01-4.05-.42-.42-3.42.9-3.23-.79,3.79-.43,6.94-2.78,7.28,2.41,1.08-.63,2.85-4.47,4.03-1.2.13.37-1.67.72-2.32,1.69-1.32,2-1.11,3.65-1.79,5.36-.37.93-2.15.38-1.55,2.61.06.21,2.49.84,1.63,2.86,1.32.07,1.47-2.32,1.63-2.42.95-.66,5.89,3.4.79,5.66h51.71c-1.15-2.22-4.22-1.07-5.48-1.8-1.22-.71-1.66-6.09-5.84-4.67-.67-3.18,2.42-3.57,4.85-4.05l-3.23-3.21,5.24-.83-.39,4.85,2.43.02c-1.29,2.05-1.94,3.97-1.62,6.45,2.22.53,3.36-1.3,4.91-1.97.78-.33,1.84.23,2.39-.11.33-.2,1.51-3.52,3.2-1.96.16.15-1.68,3.32-2.38,3.62-1.63.71-3.01-2.75-2.46,3.64h29.09c-1.42-2.49-5.67-1.92-8.08-2.43,0-1.69,2.7-.16,3.69-1.59.7-1.01-2.65-2.58,3.98-3.26,2.37,1.39-2.6,2.96-.4,3.67,1.8.58,4.89-.24,6.46-1.23v4.04c3.05.56,4.34-.65,6.46-2.42l1.63,3.22h6.1v-269.87c-4.44,1.14-3.14-3.33-3.77-3.96-.3-.3-2.18,0-3.14-.48-1.21-.62-1.32-2.4-1.78-2.67-1.31-.76-5.88.26-7.53-1.78-.47-.62,2.59-3.69,3.16-4.94,3.5-7.73-.42-5.05-3.53-6.8-.3-.17-4.75-4.51-4.86-4.84-.59-1.75,1.4-1.09,2.01-1.98,2.76-4.01-4.45-1.71-4.45-2.86l4.05-.41c-.88-1.42-3.84-2.04-1.51-3.94,1.47-1.2,11.19,1.66,8.79,6.38l2.41-1.62v3.23c1.14.23,1.76-.37,2.64-.85,1.77-.96,1.81-1.91,2.65-3.16.59-.88,1.91-.78,1.98-.86.37-.45-2.07-2.05-1.62-2.4,1.86-1.45,3.4,2.18,4.49,3.33v-150.48c-3.81,1.73-8.12,2.67-11.55,4.75-8.84,5.35-13.63,12.19-24.6,16.59Z"/>
      <path d="M727.39,1068.14c-1.28-2.39-3.21-5.36-4.82-7.52-.41-.56-1-.68-1.65-.56,2.06,2.31,3.03,6.61,6.46,8.08Z"/>
    </g>
  </g>
</svg>